<?xml version="1.0" encoding="iso-8859-1"?>
<!-- Generator: Adobe Illustrator 15.1.0, SVG Export Plug-In . SVG Version: 6.00 Build 0)  -->
<!DOCTYPE svg PUBLIC "-//W3C//DTD SVG 1.1//EN" "http://www.w3.org/Graphics/SVG/1.1/DTD/svg11.dtd">
<svg version="1.1" xmlns="http://www.w3.org/2000/svg" xmlns:xlink="http://www.w3.org/1999/xlink" x="0px" y="0px" width="350px"
	 height="350px" viewBox="0 0 350 350" style="enable-background:new 0 0 350 350;" xml:space="preserve">
<g id="Layer_1" style="display:none;">
	<g style="display:inline;">
		<g>
			<path style="fill:#CCCCCC;" d="M214.261,156.28c3.604-29.75-13.974-53.866-39.262-53.866c-25.288,0-42.865,24.116-39.261,53.866
				c2.591,21.39,12.407,40.197,24.439,48.892c1.08,17.979,2.161,36.496,3.241,54.496h-9.249c-2.853,0-5.337,1.747-5.337,4.601v3.966
				c0,0.166,0.181,0.433,0.195,0.433h15.002c0.275,4,0.551,8.849,0.825,12.986c0.145,2.095,1.095,4.014,2.125,4.014
				c5.099,0,10.198,0,15.297,0c1.03,0,1.981-1.921,2.126-4.014c0.274-4.138,0.549-8.986,0.824-12.986h15.729
				c0.016,0-0.123-0.267-0.123-0.433v-3.966c0-2.854-2.166-4.601-5.019-4.601h-9.976c1.069-18,2.14-36.142,3.209-53.954
				C201.431,197.263,211.614,178.127,214.261,156.28z"/>
			<path d="M214.261,156.28c1.017-8.562,0.344-17.38-2.439-25.556c-2.762-8.147-7.723-15.659-14.641-20.829
				c-3.439-2.584-7.334-4.561-11.457-5.781c-4.122-1.225-8.459-1.677-12.744-1.426c-4.283,0.246-8.523,1.226-12.45,2.935
				c-3.931,1.702-7.535,4.121-10.639,7.061c-6.231,5.893-10.38,13.764-12.405,22.048c-2.064,8.317-2.019,17.037-0.498,25.459
				c1.461,8.439,4.069,16.696,7.932,24.316c1.928,3.807,4.163,7.461,6.774,10.817c2.607,3.351,5.597,6.417,9.012,8.882l0.346,0.249
				l0.026,0.427l1.68,27.126l1.633,27.128l0.063,1.034l-1.033-0.002l-5.539-0.013l-2.769-0.006
				c-0.462,0.004-0.942-0.014-1.315,0.014c-0.365,0.025-0.752,0.11-1.11,0.23c-1.453,0.487-2.615,1.765-2.847,3.242
				c-0.025,0.184-0.05,0.369-0.05,0.557l-0.004,0.674l0.024,1.385l0.023,1.384v0.543c0-0.05-0.048-0.084-0.035-0.048l0.008,0.065
				l0.059,0.209c0.049,0.163,0.076,0.361,0.088,0.555l-0.922-0.884l15.001,0.035l0.833,0.002l0.05,0.823l0.779,12.596
				c0.043,0.977,0.251,1.909,0.667,2.663c0.189,0.365,0.506,0.65,0.597,0.651c0.011,0.003,0.017,0.004,0.021,0.004
				c-0.008,0.002,0.111,0.001,0.16,0.001l0.395,0.002l0.788,0.005l6.309,0.038l6.309,0.038l0.788,0.005
				c0.232,0,0.628,0.008,0.599-0.003c0.139-0.013,0.464-0.316,0.665-0.689c0.436-0.771,0.655-1.719,0.707-2.706l0.884-12.588
				l0.043-0.608l0.604,0.003l15.729,0.094l-0.554,0.531c-0.001-0.116-0.202-0.121-0.345-0.511c-0.016-0.042-0.225-0.173-0.225-0.231
				v-0.088v-0.177l0.195-0.354l0.104-1.415l0.057-1.416c0.003-0.493,0.039-0.909-0.034-1.328c-0.233-1.696-1.48-3.19-3.146-3.614
				c-0.413-0.112-0.827-0.165-1.27-0.164l-1.412-0.009l-2.829-0.017l-5.661-0.034l-0.446-0.002l0.029-0.442l1.773-26.848
				l1.721-26.852l0.004-0.065l0.054-0.037c3.903-2.659,7.247-6.08,10.129-9.817c2.882-3.747,5.307-7.837,7.349-12.101
				C210.521,174.907,213.094,165.671,214.261,156.28z M214.261,156.28c-1.123,9.396-3.652,18.65-7.69,27.228
				c-2.025,4.281-4.436,8.392-7.311,12.166c-2.874,3.763-6.217,7.217-10.137,9.915l0.058-0.102
				c-0.53,8.953-0.994,17.91-1.472,26.866l-1.452,26.868l-0.418-0.444l5.661-0.034l2.831-0.017l1.415-0.009
				c0.501-0.007,1.026,0.05,1.525,0.18c2.043,0.488,3.637,2.336,3.936,4.389c0.095,0.512,0.086,1.046,0.089,1.495l0.008,1.416
				l-0.232,1.415l-0.238,0.354v0.177v0.088c0,0,0.234-0.071,0.236-0.057c0.02,0.049,0.35,0.482,0.319,0.848l0.018,0.528l-0.48,0.003
				l-15.714,0.094l0.655-0.604l-0.729,12.594c-0.053,1.105-0.27,2.273-0.86,3.347c-0.316,0.516-0.685,1.127-1.58,1.41
				c-0.544,0.105-0.682,0.038-0.973,0.06l-0.788,0.005l-6.309,0.038l-6.309,0.038l-0.788,0.005l-0.395,0.002l-0.234-0.002
				c-0.126-0.005-0.252-0.024-0.367-0.055c-0.943-0.294-1.322-0.924-1.65-1.448c-0.609-1.091-0.839-2.275-0.9-3.391l-0.839-12.586
				l0.884,0.825l-15.002,0.035l-0.775,0.001l-0.145-0.885c-0.006-0.036-0.006-0.068-0.024-0.127l-0.039-0.12l-0.033-0.099
				c-0.007-0.018-0.035-0.108-0.055-0.214c-0.022-0.129-0.063-0.104-0.069-0.146l-0.055-0.173v-0.173v-0.346v-1.384v-1.385v-0.71
				c0-0.274,0.079-0.549,0.117-0.821c0.343-2.21,2.049-4.037,4.092-4.73c0.516-0.174,1.049-0.293,1.604-0.336
				c0.548-0.039,0.998-0.018,1.46-0.025l2.771-0.006l5.54-0.013l-0.97,1.031c-0.587-9.041-1.105-18.086-1.615-27.131l-1.554-27.133
				l0.372,0.676c-3.58-2.609-6.66-5.809-9.334-9.276c-2.672-3.475-4.957-7.225-6.891-11.136c-3.854-7.835-6.401-16.259-7.782-24.841
				c-1.443-8.564-1.388-17.491,0.819-25.94c2.167-8.424,6.495-16.403,12.918-22.334c3.198-2.958,6.9-5.378,10.916-7.06
				c4.013-1.689,8.324-2.63,12.661-2.828c8.668-0.44,17.48,2.168,24.367,7.452c6.938,5.236,11.88,12.804,14.609,20.983
				C214.687,138.894,215.316,147.723,214.261,156.28z"/>
		</g>
		<g>
			<path style="fill:#4D4D4D;" d="M146.025,116.268c2.946,7.718,5.544,15.262,6.264,23.297c0.221,2.374,2.144,4.103,4.552,4.103
				c11.859,0,23.717,0,35.575,0c2.409,0,4.332-1.729,4.554-4.103c0.737-8.247,3.454-16.099,6.496-24.017
				c-4.696-9.114-16.957-14.643-28.467-14.643C163.209,100.905,150.125,106.184,146.025,116.268z"/>
			<path d="M146.08,116.27c1.543,3.811,3.045,7.651,4.202,11.612c1.187,3.948,2.066,8.046,2.443,12.141
				c0.268,1.864,1.862,3.507,3.736,3.641l6.137,0.021c4.118,0.003,8.236,0.057,12.355,0.118c4.118,0.052,8.237,0.132,12.355,0.139
				l3.089,0.017l1.545,0.008c0.523,0.011,1.013,0.002,1.496-0.128c1.964-0.484,3.351-2.41,3.386-4.424
				c0.727-8.261,3.363-16.2,6.233-23.91l0.02,0.356c-2.612-4.942-7.264-8.548-12.313-10.875c-5.076-2.351-10.687-3.581-16.294-3.519
				c-5.596,0.042-11.247,1.151-16.366,3.493c-2.552,1.176-4.968,2.678-7.053,4.57C148.957,111.391,147.2,113.67,146.08,116.27z
				 M145.979,116.249c1.017-2.666,2.704-5.061,4.766-7.05c2.082-1.976,4.512-3.561,7.086-4.817
				c5.168-2.495,10.885-3.773,16.633-3.918c5.75-0.078,11.521,1.141,16.746,3.568c2.604,1.231,5.071,2.776,7.255,4.673
				c2.178,1.894,4.079,4.157,5.389,6.756l0.089,0.178l-0.07,0.178c-3.014,7.631-5.822,15.44-6.688,23.632
				c-0.052,2.11-1.555,4.197-3.669,4.689c-0.518,0.139-1.068,0.133-1.571,0.133l-1.545,0.008l-3.089,0.017
				c-4.118,0.007-8.237,0.087-12.355,0.139c-4.119,0.061-8.237,0.115-12.355,0.118c-2.078,0-4.078,0.044-6.219-0.02
				c-2.307-0.207-4.16-2.18-4.455-4.401c-0.689-8.208-3.191-16.091-5.946-23.847l-0.007-0.018L145.979,116.249z"/>
		</g>
		<path style="fill:#E0E0E0;" d="M189.694,172.434c0-8.32-6.745-15.065-15.065-15.065s-15.065,6.746-15.065,15.065
			c0,2.989,0.874,5.772,2.376,8.114c-0.004,0.111-0.004,0.222,0.004,0.334c1.751,26.349,3.501,73.403,5.251,99.752
			c0.11,1.593,0.833,3.033,1.616,3.033c3.879,0,7.759,0,11.637,0c0.783,0,1.507-1.441,1.616-3.033
			c1.751-26.349,3.5-73.366,5.251-99.715c0.008-0.113,0.008-0.243,0.005-0.353C188.82,178.226,189.694,175.423,189.694,172.434z"/>
		<circle style="fill:#F2F2F2;" cx="174.629" cy="172.434" r="8.972"/>
		<path style="fill:#FFFFFF;" d="M174.833,176.908c6,0,6-9.129,0-9.129c0-0.87,0-1.739,0-2.608c9,0,9,14.346,0,14.346
			C174.833,178.647,174.833,177.777,174.833,176.908z"/>
		<g>
			<path style="fill:#EDEDED;" d="M178.113,277.897c-0.143,1.9-1.782,3.331-3.666,3.333l0,0c-1.883-0.002-3.522-1.432-3.665-3.333
				c-0.722-11.473-1.443-22.946-2.165-34.418c-0.142-1.895,2.466-3.635,5.83-3.632l0,0c3.365-0.003,5.974,1.737,5.831,3.632
				C179.557,254.952,178.835,266.424,178.113,277.897z"/>
			<path style="fill:#EDEDED;" d="M178.113,277.897c-0.143,1.9-1.782,3.331-3.666,3.333l0,0c-1.883-0.002-3.522-1.432-3.665-3.333
				c-0.722-11.473-1.443-22.946-2.165-34.418c-0.142-1.895,2.466-3.635,5.83-3.632l0,0c3.365-0.003,5.974,1.737,5.831,3.632
				C179.557,254.952,178.835,266.424,178.113,277.897z"/>
		</g>
		<path style="fill:#CCCCCC;" d="M178.113,277.897c0.722-11.473,1.443-22.946,2.165-34.418c0.122-1.632-1.798-3.147-4.482-3.534
			c-0.535,13.593-1.071,27.188-1.605,40.782c-0.005,0.167,0.004,0.331,0.019,0.493c0.079,0.005,0.158,0.011,0.238,0.011
			C176.331,281.228,177.971,279.798,178.113,277.897z"/>
	</g>
</g>
<g id="Layer_2">
	<g>
		<g>
			<path style="fill:#939393;" d="M183.099,275.906c-2.595-32.968-3.956-65.938-4.092-98.909c32.97,0.063,65.942,1.352,98.916,3.874
				c68.604-5.4,68.599-10.724-0.018-15.973c-32.967,2.596-65.938,3.957-98.907,4.093c0.063-32.971,1.351-65.943,3.874-98.917
				c-5.401-68.604-10.725-68.598-15.973,0.018c2.595,32.968,3.957,65.937,4.093,98.908c-32.971-0.063-65.944-1.352-98.917-3.874
				c-68.604,5.401-68.599,10.725,0.018,15.972c32.968-2.594,65.938-3.956,98.908-4.092c-0.063,32.971-1.352,65.943-3.875,98.917
				C172.527,344.527,177.852,344.522,183.099,275.906z"/>
			<path d="M183.052,275.906c-2.617-32.901-4.219-65.901-4.219-98.908v-0.33h0.174c33.007,0,66.014,2,98.929,4h-0.025
				c8.74-1,17.477-1.444,26.188-2.421c4.355-0.493,8.706-1.024,13.031-1.717c2.16-0.35,4.317-0.731,6.445-1.226
				c1.063-0.25,2.12-0.523,3.145-0.877c0.512-0.178,1.016-0.376,1.482-0.626c0.441-0.24,0.954-0.589,0.964-0.972
				c-0.012-0.383-0.525-0.73-0.967-0.968c-0.468-0.249-0.973-0.445-1.484-0.621c-1.026-0.35-2.084-0.623-3.147-0.868
				c-2.13-0.487-4.287-0.864-6.449-1.206c-4.327-0.676-8.68-1.44-13.035-1.917c-8.716-0.942-17.454-1.58-26.196-2.58h0.038
				c-32.907,3-65.829,4.251-98.843,4.415l-0.249,0.241v-0.333c0-33.013,1-66.026,4-98.947v0.063c-1-8.739-1.651-17.473-2.627-26.181
				c-0.494-4.353-1.127-8.7-1.819-13.019c-0.35-2.157-0.78-4.31-1.274-6.428c-0.248-1.058-0.546-2.109-0.896-3.12
				c-0.175-0.504-0.383-1-0.623-1.446c-0.212-0.433-0.612-0.87-0.759-0.832c-0.146-0.037-0.543,0.402-0.753,0.835
				c-0.237,0.447-0.433,0.943-0.606,1.448c-0.346,1.012-0.617,2.064-0.861,3.122c-0.484,2.12-0.861,4.274-1.203,6.432
				c-0.675,4.32-0.98,8.67-1.457,13.024c-0.941,8.71-2.121,17.447-2.121,26.188v-0.077c2,32.917,3,65.93,4,98.945v0.669h-0.842
				c-33.016,0-66.026-2-98.941-4h0.052c-8.74,0-17.477,1.334-26.188,2.295c-4.354,0.487-8.705,0.969-13.028,1.655
				c-2.16,0.347-4.315,0.703-6.44,1.193c-1.061,0.247-2.116,0.509-3.137,0.86c-0.509,0.176-1.01,0.367-1.47,0.612
				c-0.438,0.229-0.925,0.591-0.918,0.89c-0.007,0.3,0.48,0.663,0.918,0.892c0.461,0.246,0.963,0.442,1.472,0.618
				c1.021,0.35,2.076,0.624,3.138,0.87c2.126,0.49,4.281,0.87,6.442,1.215c4.324,0.683,8.675,1.124,13.03,1.608
				c8.712,0.957,17.449,2.292,26.191,2.292h-0.039c32.912-2,65.918-4,98.927-4h-0.167v0.339c0,33.009-1,66.014-4,98.922v-0.013
				c1,8.742,1.627,17.48,2.588,26.196c0.488,4.356,1.117,8.709,1.804,13.039c0.347,2.164,0.776,4.323,1.269,6.458
				c0.249,1.066,0.549,2.127,0.904,3.162c0.18,0.517,0.391,1.027,0.646,1.507c0.259,0.446,0.583,1.008,1.12,1.05
				c0.537-0.042,0.859-0.604,1.117-1.05c0.256-0.481,0.456-0.992,0.636-1.508c0.355-1.035,0.631-2.097,0.879-3.164
				c0.491-2.135,0.873-4.295,1.219-6.459c0.685-4.331,1.192-8.684,1.677-13.042C181.648,293.389,182.372,284.649,183.052,275.906z
				 M183.099,275.906c-0.666,8.744-1.397,17.485-2.34,26.204c-0.478,4.359-1.002,8.714-1.68,13.047
				c-0.342,2.166-0.72,4.327-1.209,6.466c-0.246,1.069-0.52,2.133-0.875,3.173c-0.179,0.519-0.378,1.033-0.637,1.521
				c-0.132,0.243-0.277,0.48-0.462,0.69c-0.181,0.206-0.424,0.401-0.727,0.408c-0.303-0.006-0.546-0.201-0.728-0.406
				c-0.187-0.209-0.333-0.447-0.465-0.688c-0.262-0.487-0.463-1-0.644-1.519c-0.359-1.039-0.638-2.103-0.888-3.17
				c-0.497-2.138-0.884-4.298-1.234-6.463c-0.694-4.331-1.34-8.685-1.834-13.042c-0.977-8.716-1.545-17.455-2.545-26.197v-0.007
				v-0.007c3-32.909,3.859-65.909,3.896-98.91l0.221,0.169c-33.001,0.163-65.968,1.557-98.863,4.173l-0.007,0.001l-0.014-0.001
				c-8.746-0.666-17.484-1.398-26.208-2.341c-4.361-0.478-8.719-1.002-13.059-1.681c-2.169-0.343-4.334-0.721-6.482-1.212
				c-1.074-0.248-2.144-0.523-3.197-0.882c-0.527-0.182-1.05-0.384-1.559-0.653c-0.253-0.138-0.504-0.29-0.738-0.496
				c-0.224-0.2-0.479-0.489-0.491-0.913c0.012-0.424,0.266-0.714,0.489-0.915c0.233-0.208,0.483-0.36,0.736-0.499
				c0.508-0.271,1.03-0.476,1.557-0.659c1.053-0.364,2.122-0.643,3.195-0.896c2.147-0.499,4.312-0.886,6.479-1.237
				c4.339-0.695,8.694-1.237,13.055-1.731c8.721-0.977,17.461-1.744,26.205-2.443l0.025-0.002l0.026,0.002
				c32.903,2.49,65.897,3.756,98.893,3.791l-0.421,0.421c-0.161-32.994-1.56-65.981-4.17-98.87l-0.003-0.039l0.003-0.039
				c0.681-8.747,1.427-17.49,2.385-26.216c0.485-4.362,1.018-8.722,1.704-13.065c0.347-2.171,0.729-4.339,1.225-6.494
				c0.251-1.077,0.528-2.151,0.893-3.214c0.185-0.532,0.39-1.061,0.667-1.581c0.142-0.26,0.298-0.52,0.519-0.769
				c0.213-0.236,0.532-0.528,1.033-0.545c0.502,0.016,0.822,0.308,1.034,0.543c0.221,0.249,0.377,0.508,0.52,0.768
				c0.277,0.521,0.482,1.049,0.667,1.58c0.365,1.063,0.644,2.136,0.895,3.212c0.497,2.154,0.881,4.321,1.229,6.492
				c0.689,4.343,1.224,8.701,1.711,13.063c0.964,8.725,1.716,17.467,2.4,26.212l0.003,0.032l-0.002,0.032
				c-2.546,32.896-3.865,65.889-3.954,98.886l-0.332-0.331c32.996-0.109,65.989-1.448,98.889-4.011l0.02-0.001l0.02,0.001
				c8.744,0.68,17.485,1.427,26.207,2.385c4.36,0.485,8.717,1.017,13.054,1.702c2.168,0.347,4.332,0.729,6.477,1.222
				c1.072,0.249,2.14,0.525,3.188,0.885c0.524,0.182,1.044,0.384,1.545,0.651c0.249,0.136,0.495,0.286,0.721,0.485
				c0.218,0.194,0.451,0.467,0.462,0.848c-0.011,0.381-0.243,0.655-0.461,0.848c-0.226,0.2-0.471,0.35-0.72,0.485
				c-0.501,0.267-1.021,0.47-1.544,0.651c-1.048,0.36-2.116,0.637-3.188,0.887c-2.144,0.495-4.308,0.878-6.475,1.226
				c-4.336,0.688-8.692,1.039-13.052,1.526c-8.72,0.962-17.46,2.216-26.204,2.216h-0.013h-0.013c-32.902-2-65.9-3.683-98.903-3.771
				l0.081,0.01C179.196,209.909,180.536,243,183.099,275.906z"/>
		</g>
		<circle style="fill:#1E1E1E;" cx="175.142" cy="173.111" r="6.431"/>
	</g>
</g>
</svg>
