<?xml version="1.0" encoding="utf-8"?>
<!-- Generator: Adobe Illustrator 15.1.0, SVG Export Plug-In . SVG Version: 6.00 Build 0)  -->
<!DOCTYPE svg PUBLIC "-//W3C//DTD SVG 1.1//EN" "http://www.w3.org/Graphics/SVG/1.1/DTD/svg11.dtd">
<svg version="1.1" id="Layer_1" xmlns="http://www.w3.org/2000/svg" xmlns:xlink="http://www.w3.org/1999/xlink" x="0px" y="0px"
	 width="2000px" height="8000px" viewBox="0 0 2000 8000" enable-background="new 0 0 2000 8000" xml:space="preserve">
<rect x="-1" y="1" fill="#34BF00" width="2000" height="8000"/>
<g>
	<polygon fill="#D89E41" points="1818.798,4664.099 1877.154,4714.565 1840.133,4785.126 1876.561,4708.56 1859.384,4739.562 
		1891.31,4671.437 1860.952,4729.297 1868.955,4709.429 1842.3,4760.424 1807.387,4828.951 1858.666,4719.658 1865.685,4701.369 
		1844.248,4742.397 1828.984,4770.83 1830.538,4764.131 1816.324,4790.746 1849.804,4716.274 1802.464,4813.563 1861.813,4683.172 
		1855.486,4692.828 1826.529,4751.604 1833.406,4733.103 1852.44,4687.885 1789.57,4821.813 1850.654,4684.06 1849.292,4683.196 
		1785.833,4820.267 1858.461,4654.978 1830.012,4714.571 1808.783,4758.543 1859.944,4639.179 1848.339,4661.437 1787.414,4796.554 
		1779.598,4811.065 1828.799,4694.106 1774.991,4814.858 1798.838,4755.89 1827.854,4684.354 1840.131,4651.5 1770.924,4810.646 
		1838.748,4646.467 1799.179,4736.433 1788.702,4757.765 1794.871,4739.155 1800.413,4721.915 1770.476,4790.856 1807.691,4696.295 
		1758.394,4813.173 1807.653,4688.194 1769.123,4779.625 1768.816,4776.76 1823.503,4636.006 1818.666,4643.754 1820.489,4634.679 
		1811.897,4652.039 1805.282,4664.655 1762.891,4769.274 1790.9,4693.069 1764.237,4758.167 1785.907,4697.649 1769.238,4737.144 
		1770.045,4731.069 1815.093,4607.588 1788.671,4673.202 1747.698,4778.644 1757.022,4749.692 1807.235,4609.491 1794.479,4639.535 
		1770.618,4700.246 1802.395,4608.209 1772.383,4686.64 1761.805,4711.69 1790.416,4627.035 1792.012,4617.796 1745.073,4746.166 
		1757.266,4707.153 1729.655,4782.022 1732.116,4770.828 1726.048,4784.506 1747.348,4718.289 1725.392,4778.151 1739.963,4731.235 
		1731.087,4753.181 1763.796,4651.19 1741.238,4714.2 1720.2,4773.119 1764.268,4634.949 1769.417,4614.222 1770.541,4605.537 
		1711.65,4782.967 1748.703,4663.082 1769.911,4591.767 1753.213,4638.853 1753.617,4632.474 1744.912,4655.046 1738.373,4671.051 
		1743.391,4649.786 1714.549,4738.623 1719.616,4717.41 1733.82,4665.72 1717.928,4713.413 1744.164,4620.744 1748.899,4599.409 
		1737.853,4631.162 1746.301,4596.834 1734.08,4633.162 1740.899,4603.937 1716.238,4684.155 1734.275,4615.59 1725.883,4639.604 
		1716.249,4668.297 1687.821,4764.601 1685.883,4766.875 1730.265,4601.097 1687.969,4749.747 1707.963,4671.078 1702.57,4685.63 
		1701.644,4683.56 1716.313,4622.903 1720.316,4601.576 1679.738,4750.621 1687.125,4716.886 1678.06,4746.726 1719.799,4578.271 
		1705.885,4626.729 1687.46,4693.708 1670.979,4753.933 1680.297,4710.978 1666.64,4760.865 1695.688,4636.729 1676.63,4708.944 
		1683.277,4675.658 1672.926,4713.08 1685.67,4653.335 1696.491,4600.946 1694.185,4604.146 1659.718,4746.451 1696.436,4580.593 
		1688.135,4609.854 1676.225,4655.835 1654.53,4746.263 1660.208,4714.862 1674.154,4645.272 1686.389,4582.265 1654.812,4721.205 
		1679.318,4600.5 1673.052,4622.622 1647.428,4737.381 1659.726,4671.963 1654.491,4690.26 1664.459,4634.997 1679.294,4554.537 
		1673.568,4575.06 1638.327,4743.604 1642.158,4717.817 1664.41,4597.416 1645.604,4686.272 1646.932,4672.375 1643.718,4682.041 
		1650.721,4637.328 1639.094,4691.746 1659.074,4576.317 1650.692,4613.426 1661.641,4545 1652.533,4586.408 1652.229,4579.179 
		1623.448,4734.55 1632.525,4674.896 1627.13,4698.291 1655.164,4525.672 1650.805,4541.364 1618.45,4726.188 1638.356,4597.53 
		1633.776,4616.331 1630.584,4626.957 1620.831,4679.065 1634.656,4582.688 1634.94,4570.771 1630.184,4591.597 1633.136,4562.122 
		1633.218,4551.354 1617.495,4646.511 1604.264,4726.933 1617.297,4628.295 1616.846,4621.341 1630.118,4517.58 1612.021,4635.006 
		1601.282,4702.377 1620.677,4550.278 1597.768,4709.416 1598.818,4691.679 1620.241,4517.771 1616.437,4534.916 1614.437,4537.644 
		1603.015,4615.897 1588.716,4719.337 1596.047,4649.071 1592.177,4669.589 1596.473,4622.058 1589.784,4667.168 1596.574,4596.196 
		1594.159,4604.396 1600.362,4536.522 1584.046,4669.483 1582.362,4672.547 1591.754,4572.063 1592.318,4552.576 1576.533,4689.235 
		1583.025,4613.121 1579.5,4633.801 1582.994,4584.099 1575.046,4650.842 1575.42,4632.397 1579.434,4574.146 1581.688,4533.47 
		1579.977,4534.91 1568.804,4643.642 1566.258,4656.867 1559.969,4714.274 1567.392,4610.474 1566.394,4605.054 1559.4,4674.733 
		1561.682,4628.09 1557.524,4663.696 1552.233,4716.09 1562.224,4563.306 1557.891,4602.558 1553.93,4638.274 1560.6,4521.069 
		1547.022,4698.869 1552.683,4593.812 1548.72,4632.567 1543.819,4689.448 1550.233,4561.615 1542.823,4661.175 1544.887,4602.138 
		1545.997,4556.998 1545.275,4542.304 1539.301,4625.733 1534.351,4694.875 1531.888,4717.451 1540.259,4519.709 1531.457,4673.396 
		1537.965,4500.259 1535.4,4521.86 1527.295,4677.479 1527.618,4636.416 1524.777,4674.752 1522.215,4707.274 1520.686,4713.215 
		1522.058,4637.353 1521.412,4614.367 1522.406,4537.41 1518.575,4614.117 1517.631,4597.688 1513.213,4708.47 1514.392,4611.149 
		1514.855,4529.914 1511.661,4605.931 1511.655,4537.688 1506.757,4712.146 1507.234,4613.188 1506.563,4567.162 1504.09,4633.319 
		1502.72,4633.299 1500.992,4661.535 1499.542,4669.737 1499.414,4537.696 1498.245,4496.116 1495.571,4665.451 1494.386,4627.965 
		1493.227,4557.918 1491.539,4657.453 1490.138,4711.379 1488.787,4622.356 1487.423,4641.867 1486.371,4719.888 1484.688,4650.435 
		1482.383,4510.696 1481.07,4538.706 1479.245,4510.742 1477.826,4521.735 1478.396,4693.521 1476.849,4674.231 1475.871,4698.854 
		1471.67,4525.063 1469.896,4514.313 1468.499,4515.789 1468.691,4603.347 1467.359,4608.043 1465.271,4579.681 1463.141,4552.282 
		1461.871,4561.004 1459.852,4540.954 1463.588,4723.992 1455.782,4508.651 1458.179,4634.151 1453.827,4543.539 1457.489,4696.522 
		1453.222,4612.304 1455.701,4717.164 1448.687,4567.106 1448.661,4604.978 1447.416,4609.709 1442.188,4519.103 1444.355,4604.981 
		1441.579,4575.147 1440.284,4578.938 1437.612,4553.368 1438.172,4595.892 1436.233,4586.278 1432.734,4545.698 1430.853,4539.269 
		1436.734,4677.201 1432.959,4632.97 1431.988,4640.442 1435.548,4727.485 1425.952,4585.321 1422.85,4558.047 1427.065,4651.237 
		1429.398,4710.834 1419.251,4571.944 1421.446,4628.679 1425.214,4707.201 1412.486,4537.254 1412.572,4560.776 1413.071,4589.658 
		1409.947,4566.324 1406.028,4532.071 1409.744,4603.892 1405.574,4567.554 1408.238,4622.22 1397.614,4502.022 1397.061,4515.04 
		1405.309,4639.103 1410.943,4726.383 1408.538,4712.851 1396.55,4584.426 1396.148,4597.133 1397.384,4628.642 1403.104,4711.115 
		1389.172,4567.103 1393.846,4636.896 1394.508,4660.054 1394.778,4678.291 1394.046,4685.168 1383.656,4588.151 1394.291,4716.413 
		1391.577,4701.91 1389.102,4690.099 1389.959,4712.674 1370.971,4534.451 1374.511,4584.877 1386.785,4721.172 1367.836,4548.5 
		1380.846,4689.205 1372.931,4626.431 1379.173,4699.019 1372.361,4648.045 1372.097,4658.673 1377.346,4719.832 1364.117,4611.515 
		1374.614,4719.537 1372.938,4716.378 1372.379,4723.164 1371.062,4723.728 1357.661,4618.424 1349.841,4563.429 1351.639,4591.729 
		1355.403,4636.065 1358.414,4673.451 1341,4540.046 1359.832,4707.996 1341.131,4566.306 1356.442,4703.03 1345.357,4624.371 
		1350.626,4678.09 1336.792,4579.42 1339.328,4611.103 1328.752,4539.405 1345.166,4679.117 1344.667,4685.944 1324.379,4541.651 
		1349.208,4741.158 1336.977,4659.521 1345.032,4730.461 1345.423,4743.226 1316.558,4540.362 1318.297,4564.465 1336.007,4703.563 
		1337.836,4726.783 1325.366,4647.424 1308.464,4537.5 1320.145,4630.788 1313.3,4592.808 1328.175,4707.104 1314.769,4623.711 
		1320.205,4671.247 1322.393,4695.774 1321.497,4699.263 1293.975,4522.737 1301.407,4582.987 1319.091,4711.276 1307.227,4641.55 
		1318.928,4728.181 1289.79,4545.831 1301.641,4633.438 1302.367,4647.61 1295.656,4613.644 1305.106,4683.655 1302.227,4674.392 
		1281.876,4554.563 1302.425,4693.562 1286.146,4600.284 1278.067,4559.308 1300.883,4710.065 1272.933,4546.228 1275.688,4572.261 
		1282.855,4625.707 1285.037,4647.985 1300.456,4749.94 1295.861,4730.981 1288.146,4692.778 1276.344,4630.812 1263.208,4561.342 
		1261.869,4562.638 1282.252,4691.59 1291.934,4756.836 1258.839,4571.724 1279.655,4701.237 1261.559,4604.908 1255.534,4578.53 
		1280.436,4729.772 1245.92,4541.33 1244.759,4543.125 1270.506,4697.476 1270.446,4705.365 1256.42,4634.876 1238.158,4541.168 
		1268.002,4715.548 1254.646,4649.487 1262.733,4702.049 1256.188,4674.082 1248.602,4640.521 1268.582,4757.62 1244.689,4635.285 
		1241.857,4628.041 1230.53,4575.153 1239.388,4630.696 1256.749,4731.463 1243.544,4668.578 1231.278,4611.347 1237.792,4653.629 
		1237.665,4660.706 1239.048,4675.636 1244.436,4711.412 1211.534,4547.517 1219.6,4597.374 1249.161,4758.131 1235.5,4695.071 
		1231.243,4680.53 1224.21,4651.976 1206.449,4568.854 1203.532,4562.081 1214.994,4627.705 1225.18,4686.76 1206.382,4599.388 
		1204.514,4597.394 1194.309,4554.146 1219.399,4687.005 1194.573,4570.789 1198.598,4598.338 1195.405,4590.097 1202.532,4632.702 
		1205.668,4655.451 1187.777,4574.896 1199.458,4639.606 1213.65,4715.937 1198.379,4648.883 1206.649,4696.087 1208.181,4710.479 
		1189.815,4629.112 1179.541,4587.276 1181.549,4603.905 1185.419,4629.683 1213.738,4771.618 1179.048,4613.724 1211.244,4773.733 
		1167.075,4571.319 1205.639,4760.401 1188.751,4687.717 1189.063,4696.08 1166.071,4595.53 1200.139,4761.569 1167.672,4617.179 
		1202.465,4785.663 1166.336,4624.878 1156.646,4587.188 1196.724,4778.789 1150.597,4573.25 1157.892,4613.826 1182.44,4733.108 
		1168.484,4676.092 1181.866,4743.87 1188.06,4778.278 1181.97,4757.405 1142.735,4586.327 1166.728,4701.685 1177.573,4757.313 
		1168.052,4721.008 1180.087,4781.44 1175.285,4766.519 1154.166,4678.603 1145.917,4648.496 1154.211,4692.049 1152.47,4690.918 
		1171.363,4781.138 1134.383,4624 1150.632,4702.453 1151.346,4712.147 1168.938,4796.069 1144.971,4697.153 1154.153,4743.84 
		1120.999,4605.253 1121.129,4612.617 1156.295,4772.547 1113.504,4592.615 1142.998,4727.222 1150.807,4767.698 1148.896,4765.634 
		1129.195,4686.84 1141.835,4747.838 1141.801,4753.974 1140.577,4755.071 1109.111,4626.289 1128.213,4714.638 1136.649,4757.067 
		1134.103,4752.425 1143.811,4800.179 1093.658,4592.608 1097.818,4617.017 1116.791,4704.05 1132.264,4775.817 1116.283,4714.521 
		1120.78,4739.867 1130.138,4785.563 1125.125,4770.547 1086.275,4613.142 1116.929,4748.584 1084.758,4619.567 1108.971,4727.612 
		1088.924,4649.998 1126.075,4811.651 1117.551,4782.176 1088.944,4668.929 1072.791,4607.801 1112.832,4780.783 1068.976,4604.629 
		1118.184,4815.276 1103.734,4761.374 1099.941,4751.966 1085.355,4697.737 1094.059,4739.916 1082.876,4699.856 1058.844,4607.22 
		1076.729,4686.961 1070.745,4668.502 1088.479,4747.604 1106.182,4826.263 1098.64,4801.269 1065.354,4671.112 1100.711,4822.245 
		1096.57,4811.181 1060.362,4669.358 1051.753,4640.369 1063.747,4695.285 1074.579,4745.666 1052.062,4659.946 1074.798,4758.64 
		1051.752,4671.03 1085.977,4816.313 1047.514,4666.129 1062.377,4732.483 1056.521,4714.838 1061.848,4742.47 1071.449,4787.354 
		1071.089,4792.006 1067.43,4783.224 1042.902,4690.106 1065.569,4787.681 1056.794,4758.267 1071.812,4824.724 1065.557,4805.592 
		1064.05,4805.506 1069.641,4834.092 1056.717,4788.129 1025.05,4666.8 1015.528,4634.556 1015.865,4642.099 1014.913,4644.597 
		1030.507,4712.899 1027.793,4708.131 1054.431,4820.704 1037.67,4759.649 1048.469,4808.86 1042.8,4792.099 1002.128,4635.474 
		1004.114,4649.499 999.771,4638.308 1047.116,4833.103 1021.305,4736.226 1045.735,4839.642 1035.945,4806.437 1043.893,4844.345 
		1029.725,4793.789 1035.155,4821.213 1028.17,4799.397 1018.752,4767.931 1001.871,4706.694 991.295,4670.638 1019.757,4789.729 
		996.727,4704.153 1021.77,4809.824 978.253,4642.913 1017.572,4805.028 987.777,4692.579 1011.307,4791.896 1018.717,4827.326 
		996.251,4744.116 972.204,4654.597 1022.48,4859.978 968.883,4653.422 972.251,4672.544 997.204,4777.729 974.979,4695.601 
		992.52,4771.069 978.147,4719.865 987.003,4761.097 1004.195,4835.13 979.706,4744.052 959.016,4667.66 998.338,4829.953 
		965.849,4707.071 981.168,4773.715 971.365,4740.709 972.046,4749.437 984.113,4803.207 949.729,4672.767 991.221,4843.444 
		988.833,4839.961 979.55,4809.161 976.537,4803.058 986.622,4849.074 969.361,4786.537 954.436,4733.095 975.873,4824.424 
		947.179,4716.162 937.187,4682.364 964.924,4798.835 951.057,4749.543 974.849,4850.457 949.698,4755.992 957.487,4793.132 
		959.992,4809.045 963.648,4829.722 934.377,4718.708 944.058,4763.498 921.756,4680.174 962.976,4851.224 967.396,4874.933 
		920.08,4691.496 924.416,4714.707 927.771,4734.312 911.796,4676.101 945.821,4818.606 910.333,4682.276 947.802,4838.854 
		937.854,4804.847 907.003,4686.705 947.486,4855.701 938.37,4825.063 916.512,4743.085 919.871,4762.646 911.289,4734.022 
		935.189,4836.662 915.127,4761.608 914.16,4763.688 943.8,4889.72 923.269,4812.696 899.302,4721.435 903.711,4745.558 
		921.021,4821.826 903.621,4757.362 937.31,4900.483 916.688,4822.638 888.932,4715.548 893.734,4741.155 891.816,4739.558 
		895.207,4759.608 919.664,4865.642 910.057,4832.457 882.717,4726.681 895.703,4785.942 883.588,4742.226 902.991,4828.231 
		918.236,4897.108 870.021,4704.849 913.687,4891.201 905.226,4862.237 871.297,4728.595 897.523,4842.929 902.131,4868.19 
		880.148,4783.341 862.567,4716.353 884.145,4812.369 877.437,4790.683 854.056,4699.567 863.799,4746.201 859.256,4733.293 
		874.516,4803.397 872.256,4800.199 875.154,4818.604 889.775,4886.437 860.682,4770.313 883.71,4873.487 860.397,4781.519 
		841.02,4706.131 876.136,4860.742 838.916,4709.545 880.524,4892.185 853.023,4781.897 838.399,4725.86 833.137,4709.78 
		838.349,4738.112 864.981,4858.254 848.804,4795.396 850.414,4808.675 838.565,4764.036 845.808,4801.633 831.235,4745.321 
		835.496,4769.797 852.345,4849.104 845.868,4827.595 854.626,4871.981 847.396,4847.188 844.888,4842.821 858.746,4909.664 
		822.615,4758.798 831.653,4804.533 831.406,4809.974 811.048,4727.063 816.275,4756.343 850.208,4912.381 828.702,4824.194 
		808.325,4740.481 837.661,4877.049 847.861,4929.144 845.161,4923.751 837.337,4895.767 828.123,4861.337 837.429,4909.911 
		822.512,4849.683 821.884,4853.59 825.065,4874.59 791.459,4729.817 815.702,4845.87 826.354,4901.007 813.557,4849.755 
		810.791,4843.914 827.827,4928.44 800.582,4810.789 797.837,4804.916 826.181,4941.858 790.973,4786.856 811.727,4889.438 
		794.359,4815.978 788.248,4794.396 793.62,4826.235 814.244,4929.25 776.606,4760.438 791.782,4838.325 772.151,4753.455 
		794.755,4866.312 810.929,4949.646 780.07,4810.872 791.181,4870.485 785.948,4852.758 790.296,4880.625 782.708,4851.446 
		796.229,4923.36 763.954,4775.293 763.241,4778.954 795.995,4944.375 761.881,4786.292 788.377,4922.09 791.002,4942.519 
		780.937,4900.765 786.89,4937.431 786.188,4941.274 773.708,4887.356 744.553,4750.138 749.127,4779.935 751.273,4797.574 
		763.824,4867.808 759.545,4853.797 742.357,4774.789 759.934,4870.612 759.904,4878.041 769.695,4935.243 756.029,4873.431 
		757.692,4889.464 741.814,4815.577 758.163,4907.217 730.247,4770.649 746.672,4863.321 757.184,4925.76 752.918,4911.215 
		755.312,4931.804 730.381,4808.563 738.001,4856.379 719.84,4768.196 718.11,4766.209 735.949,4868.89 741.583,4907.069 
		747.157,4944.915 745.174,4942.908 727.783,4856.519 733.427,4895.22 707.592,4762.153 721.95,4848.509 714.814,4817.304 
		727.752,4896.767 723.09,4879.101 721.584,4878.912 737.529,4976.104 712.89,4846.588 711.262,4845.498 697.845,4777.522 
		712.521,4869.192 698.581,4798.024 694.036,4779.832 697.846,4809.664 721.716,4956.49 700.099,4839.378 704.564,4873.908 
		688.237,4786.353 707.48,4908.433 704.227,4897.926 691.382,4830.21 688.247,4819.817 680.482,4781.283 678.158,4775.692 
		678.976,4789.147 685.725,4839.022 685.633,4847.254 689.07,4877.312 693.265,4912.536 698.323,4953.426 687.702,4896.166 
		673.637,4816.938 693.143,4949.19 670.188,4812.545 674.637,4850 676.792,4873.16 660.909,4779.592 687.166,4959.908 
		662.779,4810.008 655.629,4771.492 657.353,4792.11 677.497,4935.83 655.011,4794.793 683.214,4995.176 656.372,4822.71 
		676.774,4972.299 678.795,4996.644 658.277,4865.033 647.907,4802.571 660.459,4900.435 641.8,4778.819 652.602,4865.313 
		662.551,4946.942 648.81,4858.688 649.104,4871.092 659.395,4956.983 633.74,4779.033 636.358,4808.293 642.148,4861.95 
		659.062,5000.005 649.666,4940.586 650.747,4960.17 651.986,4981.513 641.901,4915.144 645.618,4955.911 623.328,4792.177 
		641.875,4949.799 623.983,4818.659 644.039,4991.278 620.65,4813.97 618.636,4808.508 615.631,4794.75 638.881,4999.938 
		624.057,4888.416 614.366,4818.248 633.625,4995.237 630.5,4980.813 615.008,4859.408 606.208,4793.824 607.684,4819.646 
		622.706,4966.324 617.956,4937.12 619.687,4966.606 603.863,4834.272 601.985,4829.826 617.521,4988.875 603.867,4873.608 
		608.743,4934.17 594.105,4806.004 609.197,4967.457 598.427,4875.729 600.878,4914.494 606.771,4989.123 600.919,4944.86 
		602.078,4972.438 587.718,4837.558 594.851,4927.813 593.42,4928.069 583.027,4830.97 594.468,4972.015 576.291,4785.965 
		592.06,4979.166 588.66,4957.679 587.809,4965.222 576.013,4843.931 579.539,4902.442 579.667,4921.396 585.148,5006.79 
		567.225,4802.358 576.686,4938.974 577.357,4966.617 576.894,4980.261 571.904,4934.271 567.556,4895.396 563.801,4863.194 
		559.144,4818.61 557.863,4819.29 567.935,4983.451 564.821,4960.013 553.321,4811.252 559.126,4918.373 554.976,4876.492 
		554.194,4886.276 556.707,4948.869 551.003,4880.321 554,4953.571 547.994,4876.524 542.578,4806.135 551.716,4992.925 
		542.507,4852.75 545.185,4928.448 541.896,4893.097 540.559,4894.597 540.329,4918.517 539.56,4932.451 540.979,4993.442 
		531.34,4816.017 536.859,4970.601 531.904,4890.444 535.933,5020.19 527.131,4842.418 525.403,4831.785 527.171,4913.924 
		522.627,4829.121 525.104,4936.541 524.249,4954.983 517.919,4806.216 517.702,4839.631 518.013,4895.526 516.917,4906.62 
		517.948,4994.587 511.807,4818.272 512.782,4912.265 512.461,4959.965 510.242,4927.285 509.933,4983.199 508.536,4989.276 
		504.841,4867.297 503.247,4853.994 503.174,4939.252 499.865,4797.685 499.002,4834.923 497.264,4796.83 496.321,4834.655 
		496.324,4999.666 493.743,4843.783 493.232,5016.127 491.413,4938.867 489.939,4933.362 488.335,4803.271 486.917,5006.702 
		485.854,4801.865 484.44,4834.541 482.741,4911.431 481.576,4870.271 480.065,4888.97 478.054,4954.49 475.931,5016.146 
		475.177,4944.048 473.964,4925.78 472.907,4900.112 471.663,4889.653 468.483,4991.353 469.656,4848.459 464.703,5021.935 
		465.757,4903.81 465.913,4837.72 462.943,4902.828 462.583,4864.233 461.233,4862.42 456.139,4987.132 453.731,5015.438 
		456.301,4888.972 455.754,4865.013 451.413,4947.144 454.428,4829.095 451.35,4873.119 452.78,4803.967 445.225,4953.063 
		442.305,4985.417 441.952,4958.72 439.276,4983.26 441.955,4896.444 444.447,4818.554 442.349,4834.474 436.176,4925.513 
		431.013,4993.074 435.545,4884.712 430.534,4947.413 430.202,4927.735 424.472,4998.199 430.157,4881.38 421.228,4998.257 
		426.272,4898.356 425.694,4885.972 422.211,4916.097 414.842,4999.041 427.389,4804.519 415.074,4953.983 422.793,4831.95 
		420.905,4838.981 410.875,4949.351 420.043,4816.981 408.976,4935.437 413.064,4869.423 410.579,4882.196 398.685,5003.24 
		404.872,4914.985 409.862,4843.499 402.233,4911.974 404.67,4870.468 393.006,4978.104 402.466,4864.521 398.63,4889.53 
		394.721,4914.375 399.695,4851.33 383.944,4990.478 390.066,4916.972 390.491,4899.237 389.631,4893.918 392.617,4853.942 
		380.49,4949.853 378.084,4957.502 374.082,4978.681 371.413,4987.862 372.901,4962.301 367.402,4994.916 374.06,4927.362 
		387.556,4807.192 369.88,4936.901 365.888,4956.315 371.553,4900.463 372.958,4878.608 359.038,4972.381 359.634,4956.511 
		358.52,4953.235 380.548,4782.751 348.339,5004.117 367.235,4858.944 358.803,4907.992 362.771,4870.453 359.19,4885.222 
		367.961,4816.271 356.146,4886.308 362.962,4832.138 335.493,5001.416 335.913,4988.104 345.357,4918.071 353.545,4857.211 
		330.38,4991.896 356.927,4819.315 344.555,4886.292 353.984,4821.004 350.534,4833.567 346.547,4848.959 351.723,4810.877 
		318.994,4991.161 325.158,4946.918 337.476,4868.597 328.303,4911.748 339.042,4844.129 338.607,4838.897 345.024,4796.479 
		345.156,4789.067 339.08,4814.222 331.868,4845.218 340.12,4794.823 302.239,4983.446 321.633,4875.901 326.179,4845.517 
		314.063,4899.147 319.882,4862.729 335.116,4780.86 296.39,4963.294 290.858,4982.079 326.889,4801.449 327.722,4791.187 
		316.826,4836.235 310.598,4858.724 317.578,4819.651 326.731,4771.604 304.09,4868.464 296.062,4898.03 282.708,4950.842 
		277.482,4966.709 277.386,4959.806 276.572,4956.058 290.82,4887.435 315.982,4773.006 311.104,4788.233 285.385,4891.078 
		306.765,4795.042 303.973,4801.078 276.387,4909.095 275.153,4907.649 284.049,4865.258 299.484,4797.125 304.49,4771.715 
		300.593,4781.744 283.928,4842.09 262.743,4919.106 271.987,4877.021 274.556,4861.24 278.888,4838.991 250.922,4939.362 
		292.426,4776.821 281.296,4813.552 249.793,4925.116 262.445,4872.465 289.009,4769.485 291.139,4757.123 273.858,4814.627 
		242.949,4920.104 280.084,4782.215 285.248,4759.201 257.605,4851.349 229.558,4943.774 278.783,4767.567 231.816,4924.222 
		259.983,4822.401 249.281,4853.715 227.602,4921.545 228.624,4912.625 248.792,4839.974 258.985,4801.397 250.662,4823.883 
		237.623,4861.479 245.79,4829.997 241.319,4839.496 256.467,4786.069 241.175,4830.198 216.489,4903.353 217.884,4893.793 
		232.191,4843.976 260.848,4750.353 211.532,4897.856 204.958,4912.938 207.507,4900.103 240.467,4795.354 199.369,4914.332 
		252.553,4750.396 205.304,4886.679 189.75,4927.644 185.969,4933.503 188.618,4920.739 229.4,4797.231 215.858,4832.042 
		188.025,4907.26 210.331,4838.821 238.641,4753.981 191.056,4884.183 183.654,4900.252 239.136,4740.69 233.845,4751.533 
		241.983,4725.056 225.187,4767.358 237.887,4728.832 184.148,4870.61 238.188,4720.301 193.884,4835.418 195.218,4827.563 
		216.104,4767.888 206.973,4788.021 206.65,4784.853 212.256,4766.161 165.385,4884.103 191.939,4810.931 158.348,4893.06 
		189.263,4809.604 161.878,4875.224 158.079,4880.479 197.321,4777.187 214.116,4731.19 182.549,4806.293 183.99,4798.704 
		182.097,4799.444 212.603,4720.729 169.718,4821.845 169.925,4817.313 133.913,4900.416 209.809,4713.372 210.325,4708.59 
		177.619,4783.117 180.386,4772.774 130.664,4886.282 158.207,4817.451 128.352,4883.276 145.405,4839.34 133.167,4863.765 
		134.129,4857.371 168.825,4773.664 145.893,4822.408 179.139,4742.862 123.142,4866.104 127.45,4852.306 124.874,4854.062 
		196.958,4689.313 111.476,4875.772 192.996,4691.521 186.179,4703.267 137.075,4807.604 161.012,4751.61 155.764,4759.53 
		123.479,4825.81 102.43,4867.205 158.307,4743.556 181.881,4689.824 184.432,4681.159 150.428,4749.942 110.828,4829.862 
		134.151,4777.222 148.263,4744.183 120.686,4798.146 121.271,4793.285 115.917,4800.76 149.629,4727.869 117.285,4790.737 
		173.352,4673.049 93.577,4831.653 104.763,4805.377 80.793,4849.866 119.708,4768.204 140.742,4722.817 131.452,4751.453 
		45.851,4757.104 183.984,4755.212 131.51,4753.317 112.377,4751.424 99.584,4749.528 193.599,4747.636 176.102,4745.742 
		72.468,4743.849 114.04,4741.953 57.403,4740.06 190.182,4738.166 189.933,4736.271 65.932,4734.377 202.768,4732.483 
		143.101,4730.59 51.295,4728.694 158.086,4726.801 190.361,4724.907 154.617,4723.015 198.371,4721.119 145.521,4719.226 
		124.586,4717.331 109.67,4715.438 201.925,4713.543 186.823,4711.647 119.131,4709.755 79.678,4707.86 114.369,4705.967 
		112.552,4704.071 111.985,4702.179 134.604,4700.285 88.677,4698.392 164.75,4696.496 154.792,4694.603 126.229,4692.709 
		154.267,4690.813 99.266,4688.92 172.956,4687.026 109.787,4685.133 144.435,4683.237 52.016,4681.345 189.212,4679.45 
		74.995,4677.558 203.843,4675.662 61.027,4673.769 180.705,4671.874 174.48,4669.979 134.874,4668.086 83.104,4666.19 
		41.506,4664.298 120.529,4662.403 94.276,4660.51 174.285,4658.615 35.706,4656.722 153.239,4654.828 204.654,4652.935 
		69.131,4651.039 130.001,4649.146 168.098,4647.252 203.542,4645.356 84.657,4643.463 153.213,4641.569 100.353,4639.676 
		166.191,4637.78 153.838,4635.888 39.504,4633.993 63.537,4632.101 126.827,4630.205 129.423,4628.312 193.302,4626.417 
		41.549,4624.522 155.294,4622.629 72.521,4620.733 191.347,4618.841 61.768,4616.946 102.396,4615.054 195.028,4613.158 
		199.271,4611.265 127.86,4609.371 50.109,4607.478 38.228,4605.582 193.693,4603.688 145.378,4601.795 159.326,4599.899 
		201.883,4598.006 152.211,4596.112 160.364,4594.22 83.36,4592.324 130.821,4590.431 121.017,4588.536 102.582,4586.644 
		111.397,4584.748 133.523,4582.854 198.106,4580.96 47.831,4579.065 44.319,4577.172 98.334,4575.276 36.061,4573.384 
		191.045,4571.49 50.019,4569.597 130.853,4567.701 158.987,4565.808 155.936,4563.914 194.833,4562.021 91.273,4560.125 
		184.46,4558.231 130.965,4556.338 121.16,4554.442 130.742,4552.549 63.845,4550.655 159.31,4548.763 80.721,4546.867 
		73.411,4544.974 126.149,4543.079 72.659,4541.187 107.016,4539.291 90.473,4537.396 137.083,4535.503 41.676,4533.608 
		98.705,4531.715 165.561,4529.819 101.635,4527.927 67.007,4526.033 200.972,4524.14 103.674,4522.244 71.006,4520.351 
		119.555,4518.457 90.865,4516.563 186.521,4514.668 120.015,4512.774 121.716,4510.881 198.736,4508.985 60.629,4507.092 
		185.912,4505.198 89.652,4503.306 173.855,4501.41 127.035,4499.517 66.8,4497.622 149.134,4495.729 56.349,4493.834 
		67.976,4491.938 138.471,4490.046 50.633,4488.151 157.847,4486.258 168.108,4484.362 137.162,4482.47 152.699,4480.576 
		79.343,4478.683 65.624,4476.787 38.413,4474.894 201.406,4473 158.774,4471.104 70.08,4469.211 206.063,4467.317 
		131.331,4465.424 48.795,4463.528 203.048,4461.635 154.96,4459.741 83.762,4457.849 147.455,4455.953 189.011,4454.06 
		44.515,4452.165 48.923,4450.271 61.371,4448.377 65.672,4446.481 80.8,4444.589 146.586,4442.694 171.302,4440.801 
		128.072,4438.905 34.954,4437.013 42.502,4435.119 132.681,4433.226 49.239,4431.33 130.885,4429.437 77.24,4427.543 
		207.202,4425.647 57.663,4423.754 129.058,4421.86 174.756,4419.967 126.113,4418.071 195.605,4416.179 115.852,4414.284 
		148.79,4412.392 166.228,4410.496 191.315,4408.603 172.526,4406.708 78.036,4404.813 180.646,4402.92 135.134,4401.024 
		176.685,4399.132 202.296,4397.237 50.305,4395.345 153.059,4393.449 34.631,4391.556 52.117,4389.662 75.541,4387.769 
		135.605,4385.873 35.494,4383.979 82.766,4382.086 87.131,4380.19 145.702,4378.297 63.124,4376.403 144.112,4374.51 
		135.521,4372.615 133.3,4370.722 133.937,4368.827 140.261,4366.935 149.064,4365.039 101.231,4363.146 128.905,4361.251 
		161.328,4359.356 204.892,4357.463 44.229,4355.567 146.279,4353.675 60.243,4351.78 191.872,4349.888 111.386,4347.992 
		37.613,4346.099 96.417,4344.205 162.191,4342.312 140.42,4340.416 74.428,4338.522 189.154,4336.629 150.94,4334.733 
		55.396,4332.84 93.026,4330.946 96.857,4329.054 65.937,4327.158 102.735,4325.265 106.222,4323.37 147.846,4321.478 
		163.007,4319.582 160.724,4317.688 76.669,4315.794 152.365,4313.899 105.167,4312.006 48.064,4310.11 104.86,4308.218 
		113.712,4306.324 71.89,4304.431 66.71,4302.535 114.979,4300.642 194.595,4298.748 181.055,4296.854 59.464,4294.959 
		118.13,4293.065 85.055,4291.172 127.526,4289.276 36.204,4287.383 136.214,4285.489 88.296,4283.597 161.206,4281.701 
		128.523,4279.808 171.578,4277.913 78.375,4276.021 101.137,4274.125 149.393,4272.229 173.559,4270.337 34.769,4268.442 
		112.192,4266.549 162.806,4264.653 40.034,4262.761 43.604,4260.867 114.459,4258.974 83.428,4257.078 125.73,4255.185 
		172.479,4253.291 163.288,4251.396 58.426,4249.502 38.868,4247.608 191.639,4245.715 58.69,4243.819 172.213,4241.926 
		190.282,4240.032 69.221,4238.14 174.915,4236.244 184.826,4234.351 57.8,4232.456 171.832,4230.563 206.73,4228.668 
		101.168,4226.772 60.121,4224.88 188.72,4222.985 79.672,4221.092 198.891,4219.196 135.17,4217.304 50.432,4215.41 
		67.992,4213.517 97.179,4211.621 181.256,4209.728 124.312,4207.834 201.709,4205.938 180.673,4204.045 142.688,4202.151 
		139.033,4200.258 172.314,4198.362 100.745,4196.47 38.042,4194.575 195.77,4192.683 165.756,4190.787 98.403,4188.894 
		142.724,4186.999 193.805,4185.104 187.056,4183.211 44.61,4181.315 61.879,4179.423 160.305,4177.528 40.982,4175.635 
		206.518,4173.74 203.239,4171.847 68.463,4169.953 136.865,4168.06 197.571,4166.164 46.602,4164.271 71.679,4162.377 
		74.513,4160.481 120.111,4158.588 190.95,4156.694 85.118,4154.801 39.599,4152.905 184.672,4151.013 145.908,4149.118 
		162.89,4147.226 56.116,4145.33 37.47,4143.437 63.59,4141.542 81.67,4139.647 41.252,4137.754 155.501,4135.858 113.256,4133.966 
		99.637,4132.071 49.813,4130.179 118.294,4128.283 140.42,4126.39 86.448,4124.496 181.997,4122.603 108.145,4120.707 
		82.289,4118.813 34.699,4116.92 62.298,4115.024 100.59,4113.131 136.061,4111.237 190.033,4109.345 140.622,4107.449 
		146.209,4105.556 110.528,4103.661 165.152,4101.769 36.861,4099.873 197.762,4097.979 81.903,4096.085 135.091,4094.19 
		172.203,4092.298 106.55,4090.403 48.493,4088.51 181.134,4086.617 172.711,4084.724 151.337,4082.83 184.434,4080.937 
		186.256,4079.042 114.819,4077.147 120.01,4075.254 81.468,4073.361 168.31,4071.468 181.214,4069.574 84.651,4067.68 
		141.083,4065.787 155.809,4063.894 110.269,4062 195.802,4060.106 34.509,4058.213 186.823,4056.319 82.533,4054.426 
		206.544,4052.531 170.147,4050.639 56.625,4048.745 88.122,4046.853 44.504,4044.957 44.378,4043.063 88.878,4041.17 
		112.785,4039.276 59.389,4037.383 109.712,4035.488 125.901,4033.595 95.892,4031.701 181.272,4029.808 168.314,4027.914 
		95.77,4026.021 88.693,4024.126 88.794,4022.231 57,4020.338 46.099,4018.444 86.844,4016.551 143.244,4014.657 144.695,4012.764 
		51.369,4010.869 139.196,4008.978 153.901,4007.083 118.22,4005.188 140.309,4003.295 206.756,4001.401 70.058,3999.508 
		173.438,3997.615 129.291,3995.722 200.299,3993.827 185.812,3991.935 136.632,3990.039 202.656,3988.146 191.199,3986.251 
		92.942,3984.358 112.546,3982.464 43.005,3980.57 182.58,3978.676 43.128,3976.782 93.296,3974.889 129.545,3972.995 
		129.641,3971.103 136.055,3969.208 41.56,3967.313 56.783,3965.42 116.933,3963.527 126.944,3961.633 138.921,3959.739 
		95.262,3957.845 166.456,3955.952 130.048,3954.058 108.97,3952.164 152.375,3950.271 105.088,3948.377 151.57,3946.483 
		83.322,3944.589 98.376,3942.695 180.212,3940.802 117.181,3938.907 184.418,3937.014 128.708,3935.121 74.842,3933.228 
		63.272,3931.333 78.184,3929.44 93.964,3927.546 135.552,3925.652 74.338,3923.759 183.454,3921.865 113.78,3919.972 
		34.313,3918.078 156.211,3916.185 63.124,3914.29 190.902,3912.396 66.266,3910.503 148.334,3908.608 197.046,3906.715 
		100.225,3904.821 130.933,3902.927 38.434,3901.034 57.907,3899.142 46.39,3897.247 36.638,3895.354 88.355,3893.46 
		78.671,3891.565 66.662,3889.673 168.018,3887.779 93.042,3885.885 85.838,3883.991 61.333,3882.098 81.097,3880.204 
		132.193,3878.31 51.136,3876.417 164.173,3874.522 141.077,3872.63 53.658,3870.736 75.451,3868.842 37.142,3866.948 
		122.167,3865.055 48.154,3863.16 76.69,3861.267 99.945,3859.373 58.145,3857.479 75.016,3855.586 87.639,3853.69 
		154.145,3851.798 40.314,3849.904 151.449,3848.011 73.326,3846.117 148.255,3844.224 85.563,3842.33 132.914,3840.437 
		173.951,3838.542 105.734,3836.647 69.248,3834.754 129.153,3832.861 109.358,3830.968 143.55,3829.073 151.312,3827.18 
		183.555,3825.286 39.616,3823.394 206.953,3821.499 128.041,3819.604 186.755,3817.711 55.618,3815.818 100.882,3813.925 
		47.402,3812.031 40.807,3810.138 73.465,3808.243 138.095,3806.351 173.039,3804.456 176.902,3802.563 83.783,3800.668 
		207.074,3798.774 204.887,3796.881 186.484,3794.987 99.669,3793.094 183.492,3791.2 180.912,3789.307 181.807,3787.413 
		101.581,3785.521 182.686,3783.626 190.632,3781.731 41.999,3779.839 190.717,3777.945 105.263,3776.052 109.987,3774.157 
		119.333,3772.264 34.191,3770.37 97.714,3768.478 133.231,3766.583 123.872,3764.688 70.053,3762.795 165.147,3760.899 
		187.087,3759.007 108.436,3757.112 83.905,3755.219 37.284,3753.324 44.308,3751.431 98.413,3749.536 55.231,3747.644 
		128.449,3745.748 131.166,3743.854 205.426,3741.962 100.257,3740.067 179.672,3738.174 159.543,3736.28 199.525,3734.386 
		70.016,3732.492 68.877,3730.598 91.019,3728.704 205.284,3726.81 143.45,3724.916 71.435,3723.022 43.005,3721.128 
		107.89,3719.233 196.978,3717.341 196.988,3715.446 172.711,3713.553 202.423,3711.659 158.24,3709.765 50.644,3707.871 
		99.849,3705.978 151.782,3704.084 166.933,3702.188 59.453,3700.296 118.866,3698.402 175.016,3696.508 146.808,3694.614 
		131.489,3692.72 116.493,3690.827 142.868,3688.933 41.734,3687.039 59.856,3685.146 181.266,3683.251 155.215,3681.358 
		146.422,3679.464 169.073,3677.57 35.637,3675.677 186.479,3673.783 181.033,3671.89 93.842,3669.996 62.5,3668.103 
		117.261,3666.209 185.335,3664.315 89.234,3662.423 188.793,3660.529 168.32,3658.635 145.913,3656.741 158.643,3654.848 
		92.285,3652.953 104.288,3651.06 43.45,3649.167 183.507,3647.272 118.574,3645.379 174.179,3643.486 184.439,3641.592 
		159.855,3639.698 125.715,3637.804 73.029,3635.91 206.312,3634.017 80.542,3632.123 156.454,3630.229 106.836,3628.334 
		91.919,3626.44 130.435,3624.548 155.491,3622.654 150.813,3620.76 193.757,3618.866 39.117,3616.972 201.645,3615.078 
		62.382,3613.185 132.31,3611.29 167.664,3609.396 34.62,3607.503 89.742,3605.608 164.813,3603.716 49.749,3601.821 
		40.447,3599.928 77.299,3598.034 202.238,3596.14 87.983,3594.246 45.289,3592.353 174.581,3590.458 70.842,3588.563 
		42.825,3586.67 164.623,3584.776 114.231,3582.883 188.295,3580.988 188.481,3579.095 57.414,3577.201 112.806,3575.307 
		175.588,3573.413 161.878,3571.519 138.042,3569.625 112.821,3567.731 129.115,3565.837 164.024,3563.944 54.125,3562.05 
		72.681,3560.157 164.92,3558.264 60.471,3556.37 65.942,3554.476 105.692,3552.582 182.13,3550.688 172.489,3548.794 
		114.803,3546.899 50.649,3545.007 144.212,3543.112 173.463,3541.219 133.221,3539.324 52.265,3537.431 47.911,3535.538 
		55.66,3533.644 202.879,3531.75 171.716,3529.854 51.873,3527.962 102.667,3526.069 120.996,3524.175 84.959,3522.281 
		108.626,3520.387 187.501,3518.493 105.464,3516.601 187.003,3514.706 92.561,3512.813 191.893,3510.919 116.467,3509.024 
		126.043,3507.132 114.65,3505.239 130.917,3503.346 45.617,3501.452 77.897,3499.56 107.329,3497.664 42.725,3495.771 
		159.717,3493.876 90.405,3491.983 106.021,3490.089 136.918,3488.195 57.901,3486.302 204.526,3484.407 137.066,3482.514 
		46.231,3480.619 42.296,3478.726 153.356,3476.831 97.174,3474.938 105.194,3473.043 36.495,3471.149 130.732,3469.256 
		96.343,3467.361 202.471,3465.468 125.619,3463.573 42.083,3461.68 87.093,3459.786 171.959,3457.892 108.791,3455.998 
		117.77,3454.104 119.915,3452.21 46.612,3450.315 54.744,3448.422 127.977,3446.528 47.784,3444.635 147.857,3442.741 
		119.428,3440.847 79.477,3438.953 193.169,3437.06 202.307,3435.166 54.077,3433.272 153.96,3431.378 64.638,3429.483 
		62.44,3427.591 134.074,3425.696 164.691,3423.803 108.06,3421.908 181.446,3420.015 118.501,3418.121 109.813,3416.228 
		107.927,3414.334 79.407,3412.438 53.594,3410.546 189.736,3408.651 91.66,3406.758 67.759,3404.864 50.649,3402.97 
		131.16,3401.076 129.762,3399.182 129.772,3397.288 74.465,3395.396 177.453,3393.501 197.947,3391.606 182.5,3389.713 
		170.81,3387.819 116.381,3385.925 139.361,3384.031 130.901,3382.138 85.997,3380.244 93.471,3378.351 198.642,3376.456 
		120.991,3374.562 95.792,3372.668 102.906,3370.772 83.025,3368.88 96.994,3366.986 87.311,3365.093 168.24,3363.199 
		146.66,3361.305 110.724,3359.411 99.743,3357.519 187.904,3355.624 49.611,3353.731 141.152,3351.837 61.916,3349.943 
		69.168,3348.05 49.987,3346.156 178.024,3344.263 196.75,3342.37 166.884,3340.478 107.08,3338.582 195.325,3336.688 
		177.728,3334.795 47.174,3332.901 44.546,3331.008 74.195,3329.113 69.671,3327.22 105.273,3325.325 117.43,3323.432 
		142.55,3321.538 97.503,3319.644 65.429,3317.751 198.292,3315.856 134.54,3313.963 192.269,3312.069 107.207,3310.176 
		50.623,3308.282 187.814,3306.388 176.923,3304.494 34.604,3302.601 119.931,3300.707 119.629,3298.813 152.429,3296.92 
		149.42,3295.026 103.218,3293.133 79.01,3291.239 37.348,3289.345 113.256,3287.451 108.239,3285.557 204.553,3283.663 
		78.067,3281.769 153.785,3279.875 101.046,3277.981 128.719,3276.088 67.648,3274.193 205.416,3272.3 196.681,3270.405 
		123.903,3268.512 132.008,3266.618 124.958,3264.724 95.193,3262.831 44.616,3260.938 127.119,3259.043 43.959,3257.149 
		44.261,3255.256 117.637,3253.363 158.701,3251.469 179.545,3249.575 68.411,3247.681 81.447,3245.787 136.065,3243.894 
		196.843,3295.994 162.251,3321.041 170.5,3334.519 155.52,3301.313 124.914,3236.373 137.617,3258.657 157.737,3296.16 
		130.872,3238.098 105.444,3182.419 164.168,3299.761 95.474,3154.378 154,3272.167 130.786,3220.343 102.74,3157.979 
		171.14,3298.128 118.218,3182.93 177.887,3305.978 130.725,3202.086 130.995,3198.974 146.104,3227.771 106.93,3139.399 
		109.188,3140.358 184.59,3300.889 159.783,3243.226 180.683,3285.685 119.902,3147.854 181.641,3281.028 124.884,3151.04 
		182.382,3275.896 146.135,3190.803 192.973,3292.822 117.264,3117.457 194.468,3289.567 168.401,3226.358 142.196,3162.235 
		180.743,3247.483 137.412,3143.015 141.273,3147.881 188.185,3254.03 164.398,3194.226 187.398,3244.825 176.992,3216.372 
		212.716,3298.142 169.572,3190.813 155.029,3151.67 182.965,3215.396 150.7,3132.676 219.08,3296.254 203.488,3254.293 
		216.632,3283.2 207.151,3256.014 160.728,3135.967 180.381,3181.096 209.348,3250.319 152.617,3102.138 181.515,3171.499 
		150.585,3087.769 215.755,3251.526 199.283,3204.92 167.209,3117.065 203.077,3206.674 210.797,3222.976 159.582,3083.041 
		202.757,3193.435 196.199,3171.644 231.407,3262.36 164.674,3077.44 217.285,3216.022 216.39,3209.438 236.431,3260.504 
		198.26,3150.738 216.095,3195.928 220.93,3205.197 215.509,3185.62 232.019,3228.024 183.743,3086.169 210.958,3159.24 
		242.754,3246.394 229.357,3203.397 199.581,3112.103 196.46,3098.006 246.105,3239.584 199.228,3096.101 206.865,3113.899 
		196.026,3076.238 244.902,3218.962 212.474,3115.769 240.457,3196.454 238.939,3187.19 221.592,3128.769 204.3,3069.844 
		202.576,3059.058 241.099,3175.104 226.519,3123.947 250.099,3194.231 241.833,3162.892 273.925,3261.849 272.288,3252.231 
		225.773,3095.205 251.242,3173.812 272.079,3238.185 253.779,3172.31 272.133,3229.163 262.265,3190.981 245.676,3129.411 
		250.59,3140.888 280.94,3240.449 267.486,3189.019 249.677,3121.446 246.884,3106.036 246.799,3100.012 281.522,3218.649 
		242.55,3073.147 238.204,3051.31 243.821,3065.608 277.507,3183.608 269.226,3147.552 270.338,3146.096 247.333,3053.813 
		247.563,3048.38 263.057,3101.132 290.19,3199.38 300.144,3232.612 280.864,3152.135 260.007,3064.253 296.03,3200.582 
		297.114,3199.432 271.138,3089.174 281.359,3124.262 289.962,3153.253 274.886,3085.078 300.874,3186.524 263.845,3025.623 
		286.753,3115.079 276.345,3064.276 289.364,3113.182 316.699,3224.946 304.418,3165.604 287,3082.757 313.827,3194.631 
		303.784,3143.708 301.591,3127.228 322.334,3214.761 311.088,3157.217 306.803,3130.765 298.004,3082.786 321.127,3184.297 
		289.205,3026.217 307.746,3107.089 327.411,3194.93 335.37,3227.13 308.95,3090.812 310.936,3092.953 333.275,3197.567 
		304.451,3044.749 301.716,3022.479 340.415,3213.642 333.23,3169.476 309.05,3034.971 311.285,3038.169 321.26,3083.104 
		322.583,3081.959 346.266,3203.229 348.158,3206.479 321.041,3047.644 344.605,3171.688 325.323,3054.002 336.483,3109.231 
		349.363,3175.565 331.359,3061.795 323.785,3007.507 340.479,3097.908 348.375,3136.868 335.192,3047.104 335.255,3037.675 
		345.869,3094.467 351.606,3121.478 367.553,3214.83 350.211,3093.74 349.849,3081.599 356.212,3113.938 361.249,3138.14 
		346.66,3029.047 348.604,3031.567 364.575,3132.027 346.675,2995.399 351.248,3016.551 358.009,3053.813 365.873,3100.242 
		353.769,2999.471 362.994,3056.586 366.866,3074.413 380.886,3171.356 373.31,3101.433 363.457,3011.351 371.079,3060.133 
		384.211,3154.927 369.592,3022.545 384.72,3136.483 382.025,3101.638 372.276,3004.759 374.543,3010.45 390.381,3137.603 
		377.074,3004.292 381.051,3026.28 389.461,3090.283 395.32,3132.125 404.205,3204.786 386.84,3021.269 388.324,3020.805 
		405.404,3178.207 390.479,3010.401 403.544,3131.265 393.859,3012.723 408.602,3156.077 396.737,3009.628 405.458,3090.298 
		406.529,3085.917 407.794,3083.675 408.377,3073.277 412.835,3109.695 419.208,3171.612 418.46,3145.116 410.74,3027.218 
		417.5,3096.568 427.45,3211.396 416.909,3048.845 424.511,3134.998 430.748,3205.755 423.076,3073.101 433.279,3206.133 
		421.349,3000.437 429.713,3108.791 432.9,3138.216 425.249,2985.24 435.394,3134.046 428.553,2987.99 435.256,3081.337 
		439.319,3130.687 444.274,3199.502 444.296,3175.091 444.209,3146.668 438.569,2996.847 441.479,3026.135 448.015,3141.318 
		449.383,3141.221 450.888,3145.142 452.94,3163.478 455.774,3202.854 449.407,2992.065 452.089,3023.438 453.105,3007.085 
		460.833,3204.472 458.293,3077.621 461.433,3136.823 463.807,3174.221 464.637,3155.547 464.938,3112.928 464.5,3030.106 
		465.682,3014.976 468.396,3075.348 470.276,3099.287 471.981,3117.005 474.122,3169.088 474.618,3106.313 475.29,3044.807 
		476.876,3053.409 479.014,3125.185 479.361,2993.777 481.732,3120.649 482.926,3079.726 484.108,3005.896 485.931,3147.026 
		487.244,3033.966 488.674,3103.215 490.397,2994.065 491.312,3147.678 492.325,3207.731 493.817,3177.63 495.245,3162.131 
		496.66,3152.703 498.746,3084.902 499.375,3150.873 501.125,3120.813 502.308,3134.178 504.698,3072.291 506.351,3060.844 
		507.148,3096.017 508.6,3094.495 509.188,3132.338 508.896,3204.144 513.265,3078.742 513.527,3124.126 514.113,3153.211 
		515.556,3149.545 520.144,3042.374 516.417,3208.253 518.45,3184.72 525.818,3007.043 521.192,3181.076 527.868,3035.122 
		525.788,3129.364 532.573,2991.912 533.466,3008.665 531.342,3095.78 527.906,3207.871 539.387,2979.97 534.65,3116.805 
		533.27,3175.771 534.695,3173.858 536.155,3170.462 539.713,3127.353 548.322,2989.549 538.018,3210.681 541.594,3169.022 
		547.009,3096.218 546.421,3131.5 549.501,3102.437 548.515,3142.51 555.097,3057.469 558.499,3026.568 557.156,3071.463 
		549.843,3206.889 556.753,3121.733 563.474,3042.827 560.549,3107.265 563.332,3087.664 556.79,3200.259 567.379,3071.694 
		572.173,3026.139 571.871,3050.351 565.602,3153.067 569.187,3124.292 574.093,3079.3 575.948,3074.337 573.5,3122.788 
		577.773,3087.715 569.445,3206.188 578.76,3110.431 588.466,3013.401 587.442,3042.772 587.983,3053.588 593.744,3005.608 
		580.141,3174.408 585.473,3130.412 584.979,3151.103 591.881,3091.784 584.629,3184.254 604.446,2990.526 589.229,3164.487 
		595.924,3109.662 599.748,3085.461 589.742,3200.33 598.386,3127.765 590.831,3215.854 609.394,3048.271 615.424,3005.11 
		605.36,3115.153 604.155,3139.82 613.731,3063.793 602.444,3181.579 610.032,3124.569 624.579,3006.06 626.534,3002.264 
		620.9,3065.945 630.607,2993.407 627.187,3037.149 629.857,3027.101 623.432,3095.045 613.13,3194.737 621.6,3134.956 
		627.016,3101.588 635.004,3047.562 625.281,3139.588 617.216,3216.519 622.967,3181.012 621.132,3206.687 637.829,3084.892 
		648.531,3012.428 644.625,3054.832 625.576,3213.896 644.764,3076.864 641.223,3115.09 631.641,3198.469 648.365,3083.053 
		633.83,3202.94 658.574,3029.291 650.58,3099.356 637.942,3202.408 646.539,3149.919 665.968,3019.979 643.024,3195.404 
		670.227,3011.514 666.17,3051.253 674.116,3005.892 672.973,3024.717 657.194,3144.813 654.862,3170.726 678.965,3015.187 
		670.768,3081.517 651.061,3224.849 679.013,3046.055 686.449,3006.53 656.484,3215.835 682.976,3049.99 678.829,3087.136 
		669.805,3155.655 692.038,3020.786 662.876,3218.757 679.115,3123.346 684.27,3099.731 674.571,3170.696 674.192,3181.881 
		678.396,3164.387 698.655,3046.772 678.539,3181.207 677.989,3193.295 688.481,3137.36 678.729,3205.78 686.979,3164.127 
		688.282,3164.767 678.188,3234.392 703.46,3090.926 680.987,3233.903 707.55,3084.394 684.987,3226.495 719.709,3030.292 
		698.545,3163.298 692.185,3208.788 720.867,3050.438 712.996,3104.682 701.51,3179.26 727.279,3039.837 731.812,3022.842 
		700.915,3206.932 725.574,3075.447 712.213,3159.201 731.476,3059.39 733.463,3056.716 702.395,3237.807 732.99,3076.202 
		732.59,3086.765 723.338,3145.71 716.836,3189.25 714.396,3210.349 732.641,3118.967 717.427,3209.19 749.952,3041.782 
		750.419,3047.628 730.643,3161.304 716.442,3244.761 718.743,3239.679 741.221,3128.411 726.084,3215.833 726.228,3222.511 
		761.611,3045.013 743.709,3146.22 753.856,3101.165 748.417,3137.06 729.245,3243.504 752.547,3130.988 729.986,3253.959 
		753.596,3140.737 741.535,3209.517 756.471,3141.111 767.256,3094.113 754.715,3164.827 752.758,3181.983 779.389,3055.924 
		783.994,3040.608 771.178,3112.019 747.1,3238.822 787.448,3046.44 761.147,3183.581 749.54,3247.739 780.143,3104.818 
		765.886,3181.729 776.88,3135.312 765.97,3195.528 761.063,3226.291 768.244,3198.537 766.597,3213.416 774.772,3181.155 
		771.216,3205.167 790.216,3121.361 771.666,3216.817 765.391,3253.651 787.006,3157.851 804.542,3082.111 783.204,3189.67 
		774.66,3236.75 783.95,3199.896 774.065,3252.89 807.81,3102.284 798.983,3150.347 820.432,3057.599 805.119,3135.679 
		799.729,3167.493 823.213,3066.076 786.832,3240.358 815.533,3115.351 828.277,3063.963 788.513,3252.542 822.451,3104.458 
		829.755,3078.071 823.922,3111.44 820.49,3133.865 799.19,3236.906 803.555,3223.705 803.6,3229.998 803.019,3239.117 
		795.946,3277.437 812.586,3209.407 822.472,3171.884 834.537,3124.757 803.911,3267.508 822.459,3191.681 825.697,3183.931 
		820.409,3213.812 825.62,3197.324 841.947,3131.974 812.36,3268.503 852.853,3097.412 860.21,3071.921 817.3,3265.866 
		860.219,3085.302 852.541,3125.233 821.536,3266.476 835.351,3212.902 864.974,3090.99 848.842,3167.33 822.588,3287.038 
		824.904,3283.203 843.365,3210.187 857.355,3156.454 865.882,3126.307 837.995,3252.142 857.707,3174.213 835.567,3275.019 
		873.476,3119.762 841.694,3261.411 846.431,3247.501 884.378,3092.824 864.785,3182.237 856.188,3224.913 840.832,3295.89 
		851.229,3258.334 844.721,3292.04 871.081,3187.198 890.256,3112.963 895.563,3097.075 865.308,3230.16 868.903,3221.32 
		856.899,3277.528 870.577,3226.763 873.542,3220.587 901.945,3108.408 859.676,3290.601 872.685,3242.646 869.358,3262.606 
		874.073,3249.188 913.316,3093.004 904.234,3136.826 880.545,3240.84 865.742,3308.021 901.265,3167.663 911.349,3132.356 
		909.98,3144.247 917.296,3120.325 906.988,3168.94 922.636,3111.028 883.523,3277.354 893.613,3242.114 880.282,3302.651 
		922.143,3137.685 923.186,3139.707 885.944,3297.606 931.01,3120.267 918.006,3179.207 902.264,3249.358 916.326,3198.287 
		900.908,3266.892 893.877,3301.481 892.041,3314.876 924.807,3188.239 894.973,3315.015 948.807,3103.305 919.601,3227.472 
		933.335,3178.106 930.436,3195.867 929.737,3204.731 949.163,3132.562 920.713,3253.13 955.968,3117.354 946.464,3161.611 
		957.285,3124.125 944.527,3181.512 962.565,3115.25 935.319,3230.54 941.144,3213.19 934.337,3246.485 929.381,3272.295 
		934.008,3259.786 941.936,3234.057 968.427,3134.079 973.86,3118.474 935.555,3277.596 976.465,3120.06 965.084,3171.598 
		954.844,3218.458 955.495,3221.853 959.277,3212.767 930.179,3334.604 941.057,3297.329 939.041,3311.381 947.461,3283.711 
		964.64,3221.313 972.158,3197.381 982.468,3162.327 969.569,3219.634 967.89,3232.291 975.642,3207.445 944.026,3339.208 
		987.362,3172.804 996.124,3144.022 966.855,3266.213 964.099,3283.118 966.393,3279.978 1004.721,3133.786 970.069,3277.307 
		978.834,3248.478 1002.105,3162.058 987.746,3225.024 1005.551,3160.31 968.056,3315.121 979.021,3277.565 1013.991,3144.652 
		965.618,3342.729 1011.844,3165.113 977.835,3306.142 1016.148,3159.949 1001.808,3222.866 1025.014,3136.678 1026.063,3138.476 
		989.794,3288.447 977.306,3344.081 1005.736,3237.103 1021.186,3181.628 1018.078,3200.019 985.178,3336.752 1007.227,3255.057 
		1020.937,3206.543 1006.521,3269.82 990.624,3339.093 1006.628,3281.324 1020.017,3234.035 1032.608,3189.808 991.037,3361.454 
		1037.944,3180.514 1015.028,3277.813 1037.199,3195.404 1020.171,3269.323 1046.746,3169.19 1027.733,3251.135 1037.037,3219.964 
		1012.537,3323.845 1053.338,3166.928 1006.728,3359.134 1027.417,3282.411 1010.458,3356.343 1027.324,3294.823 1048.176,3217.347 
		1037.287,3266.961 1014.936,3362.701 1059.998,3187.854 1032.445,3304.5 1057.273,3210.706 1017.847,3375.247 1020.006,3372.812 
		1048.236,3265.172 1027.912,3353.199 1065.581,3207.338 1041.885,3308.896 1045.512,3300.388 1044.657,3309.94 1069.7,3214.899 
		1052.752,3289.373 1031.863,3379.97 1040.621,3350.79 1034.331,3382.479 1064.714,3265.213 1075.35,3228.056 1083.973,3199.001 
		1087.034,3192.646 1042.608,3379.565 1064.674,3295.853 1063.655,3306.137 1062.723,3316.094 1088.263,3217.869 1066.338,3313.688 
		1056.993,3358.076 1086.072,3245.115 1086.189,3250.737 1089.767,3242.124 1104.191,3189.029 1062.317,3367.364 1085.74,3277.147 
		1102.22,3215.367 1089.759,3272.897 1112.027,3187.032 1081.065,3321.238 1076.489,3346.521 1069.262,3382.717 1086.523,3317.307 
		1085.863,3326.334 1099.017,3277.849 1072.948,3392.603 1076.672,3383.562 1081.728,3368.642 1116.834,3228.344 1106.303,3278.586 
		1115.563,3246.033 1088.16,3367.294 1095.118,3344.407 1126.9,3216.762 1133.171,3196.687 1097.025,3355.517 1106.046,3323.714 
		1124.989,3249.821 1118.118,3285.292 1118.632,3289.427 1118.167,3297.739 1142.282,3201.32 1105.87,3362.94 1136.243,3239.7 
		1117.854,3324.597 1150.539,3190.916 1116.723,3342.315 1109.033,3381.765 1116.652,3355.705 1147.655,3228.373 1136.59,3282.531 
		1132.164,3308.103 1151.825,3229.416 1128.077,3338.8 1153.282,3235.736 1120.409,3385.442 1155.879,3237.063 1129.632,3358.292 
		1134.223,3344.827 1152.844,3269.631 1154.712,3267.911 1123.069,3413.969 1162.426,3246.769 1131.238,3391.263 1156.895,3284.262 
		1145.264,3342.514 1165.234,3260.264 1131.796,3415.892 1146.868,3355.44 1141.177,3387.631 1158.022,3318.874 1168.773,3277.242 
		1153.592,3352.256 1161.53,3323.19 1183.135,3232.124 1188.322,3215.085 1148.73,3401.694 1187.998,3229.665 1167.092,3331.746 
		1168.255,3333.238 1195.883,3213.351 1180.446,3290.831 1172.356,3334.951 1180.131,3305.897 1167.286,3372.211 1162.059,3403.58 
		1175.121,3349.747 1161.557,3419.959 1171.322,3381.587 1192.958,3287.147 1190.711,3304.61 1178.395,3369.619 1189.846,3322.554 
		1211.653,3226.364 1176.487,3400.044 1195.657,3315.991 1211.454,3247.495 1212.768,3248.165 1180.279,3411.019 1182.963,3405.455 
		1184.552,3405.132 1206.801,3304.728 1225.525,3220.887 1195.517,3373.927 1191.479,3401.028 1198.293,3375.071 1214.005,3305.216 
		1212.963,3317.572 1197.304,3402.229 1200.424,3394.231 1217.27,3317.995 1230.626,3258.702 1231.379,3262.076 1234.582,3253.175 
		1230.017,3283.231 1237.706,3251.831 1221.034,3343.351 1201.712,3449.214 1228.142,3322.13 1206.729,3439.048 1224.804,3354.308 
		1240.379,3281.676 1238.617,3298.195 1230.309,3348.772 1216.305,3429.472 1218.821,3424.203 1218.167,3435.745 1222.652,3420.093 
		1243.254,3319.317 1250.164,3290.397 1253.816,3278.612 1241.073,3354.229 1260.825,3256.178 1238.918,3381.666 1237.01,3400.005 
		1237.53,3405.45 1268.126,3246.979 1269.765,3245.698 1239.061,3421.794 1238.718,3432.06 1273.896,3245.896 1236.68,3460.435 
		1241.106,3444.51 1256.743,3365.312 1248.729,3418.713 1258.217,3373.608 1265.917,3338.315 1279.159,3271.096 1263.643,3368.009 
		1285.061,3253.372 1257.788,3418.667 1279.042,3304.235 1273.554,3344.506 1292.278,3243.123 1265.128,3411.166 1286.398,3294.304 
		1270.948,3394.519 1289.751,3291.172 1262.361,3463.923 1276.006,3390.932 1264.845,3467.712 1276.62,3405.339 1273.412,3434.043 
		1303.623,3257.593 1289.107,3355.856 1272.86,3465.971 1299.451,3309.519 1307.027,3270.639 1276.703,3470.967 1306.221,3293.378 
		1280.428,3466.887 1291.594,3405.142 1310.138,3295.029 1305.819,3332.042 1305.62,3342.726 1318.872,3265.21 1322.259,3251.649 
		1322.435,3259.682 1315.706,3313.706 1295.775,3457.171 1299.268,3443.829 1307.023,3401.476 1309.369,3395.585 1309.589,3404.255 
		1307.925,3426.139 1324.877,3318.193 1324.95,3327.649 1335.88,3260.246 1308.49,3464.737 1324.594,3360.478 1333.499,3306.62 
		1316.622,3439.29 1335.523,3311.999 1335.63,3321.521 1329.42,3378.072 1340.974,3302.657 1319.437,3475.162 1342.974,3308.437 
		1324.451,3460.356 1334.019,3398.562 1333.774,3411.854 1330.004,3452.94 1341.823,3371.839 1355.986,3270.945 1333.714,3459.873 
		1358.367,3273 1334.164,3480.897 1355.181,3321.505 1354.858,3335.483 1343.602,3441.046 1362.416,3295.527 1349.784,3414.267 
		1360.758,3333.121 1343.938,3490.274 1356.52,3394.312 1368.188,3304.337 1367.157,3325.545 1354.598,3450.733 1355.313,3458.012 
		1377.763,3266.59 1361.426,3429.921 1365.902,3401.901 1367.299,3402.549 1368.702,3403.153 1361.835,3482.882 1364.998,3467.585 
		1380.145,3333.712 1373.135,3417.197 1379.197,3371.226 1370.316,3475.856 1379.504,3397.361 1381.394,3392.825 1380.851,3413.633 
		1378.971,3449.397 1390.127,3345.56 1378.492,3487.455 1386.948,3411.37 1383.918,3461.652 1394.581,3358.213 1401.23,3298.055 
		1389.438,3450.513 1400.683,3335.918 1394.805,3422.578 1399.094,3388.598 1393.609,3473.479 1395.313,3471.088 1394.959,3495.67 
		1409.711,3326.169 1410.842,3329.179 1408.778,3374.479 1411.695,3354.406 1417.199,3297.935 1418.618,3297.048 1418.625,3315.417 
		1410.816,3447.197 1413.808,3425.378 1420.017,3354.839 1419.47,3384.274 1423.067,3350.427 1415.559,3490.659 1417.88,3478.755 
		1430.061,3304.491 1432.84,3279.854 1427.891,3386.53 1424.174,3476.606 1425.332,3483.217 1430.207,3422.384 1436.35,3335.147 
		1429.245,3496.688 1441.103,3294.702 1441.206,3319.147 1434.144,3493.155 1436.361,3478.981 1446.402,3292.774 1441.831,3425.543 
		1445.877,3365.992 1446.584,3382.498 1446.018,3431.512 1445.375,3486.183 1449.541,3416.685 1452.464,3376.746 1456.512,3300.966 
		1457.79,3302.265 1459.116,3302.202 1460.578,3297.771 1459.784,3367.371 1463.239,3294.894 1458.939,3500.312 1465.157,3321.378 
		1466.596,3317.537 1468.37,3297.991 1468.004,3373.946 1470.708,3309.896 1470.119,3410.003 1471.1,3437.412 1473.769,3364.223 
		1473.472,3477.769 1477.149,3318.675 1476.833,3455.908 1478.58,3431.981 1480.661,3369.029 1481.423,3451.528 1483.127,3418.858 
		1484.86,3364.369 1486.082,3409.696 1487.424,3457.403 1489.07,3312.386 1490.371,3296.009 1492.019,3487.396 1493.192,3367.312 
		1494.304,3315.46 1495.985,3369.353 1496.706,3283.615 1499.684,3467.431 1500.615,3411.339 1502.194,3421.519 1503.743,3428.2 
		1506.386,3502.278 1506.706,3427.896 1508.94,3469.851 1509.675,3427.962 1508.635,3308.077 1510.334,3326.496 1512.085,3343.899 
		1512.045,3289.373 1516.223,3396.522 1518.989,3443.238 1518.89,3389.838 1520.681,3401.342 1523.196,3433.748 1521.729,3348.731 
		1526.459,3441.568 1525.085,3365.208 1526.594,3368.083 1529.912,3415.452 1529.429,3369.424 1529.576,3340.988 1529.237,3303.687 
		1533.846,3374.114 1532.757,3323.05 1532.307,3287.498 1539.986,3411.613 1537.188,3331.635 1536.12,3287.567 1545.67,3434.589 
		1547.479,3439.487 1545.379,3379.216 1541.973,3300.459 1552.304,3444.5 1547.022,3338.867 1548.547,3341.387 1559.621,3485.876 
		1552.926,3365.394 1557.998,3417.383 1558.623,3405.61 1560.506,3411.363 1559.172,3374.233 1567.595,3464.778 1571.628,3496.299 
		1563.536,3375.792 1562.088,3340.802 1568.824,3405.093 1560.111,3285.953 1575.821,3451.736 1568.698,3354.007 1566.031,3309.168 
		1581.489,3463.072 1572.864,3354.286 1586.106,3478.675 1587.803,3479.914 1590.348,3489.471 1575.42,3324.396 1587.286,3427.625 
		1583.127,3372.919 1582.735,3355.718 1583.931,3353.828 1590.307,3399.729 1577.195,3267.754 1594.983,3415.162 1602.618,3469.118 
		1587.911,3328.069 1588.994,3325.813 1597.731,3387.873 1591,3320.226 1601.386,3393.937 1587.309,3268.942 1595.763,3325.885 
		1596.528,3321.346 1593.1,3284.537 1621.466,3491.112 1594.171,3273.122 1601.023,3314.724 1595.939,3267.511 1600.883,3294.239 
		1599.049,3271.802 1602.391,3286.562 1623.704,3426.123 1627.667,3442.885 1626.095,3421.481 1635.22,3472.456 1632.876,3446.096 
		1608.704,3276.95 1622.905,3360.896 1625.922,3371.047 1630.904,3393.483 1637.566,3425.917 1630.823,3374.411 1631.365,3368.771 
		1624.86,3320.408 1652.503,3478.073 1627.547,3320.229 1621.306,3275.301 1623.865,3282.75 1637.738,3355.151 1646.013,3394.09 
		1627.815,3282.962 1653.737,3420.271 1655.811,3423.11 1650.626,3386.208 1667.305,3468.443 1659.759,3418.981 1632.363,3265.577 
		1640.45,3301.04 1637.346,3277.854 1635.004,3259.077 1665.406,3407.813 1657.069,3357.774 1670.195,3416.281 1675.83,3436.423 
		1667.795,3388.918 1654.834,3318.26 1647.53,3276.169 1681.945,3434.753 1671.788,3378.832 1683.084,3424.99 1652.157,3272.931 
		1671.179,3354.964 1687.604,3423.474 1664.835,3312.662 1694.539,3440.246 1695.545,3437.417 1656.123,3255.438 1690.017,3398.636 
		1691.341,3397.592 1664.257,3273.634 1707.45,3453.21 1685.869,3354.226 1674.772,3301.087 1713.789,3458.575 1683.271,3324.757 
		1667.826,3255.255 1681.931,3307.427 1672.753,3264.527 1704.101,3385.248 1697.742,3353.583 1712.802,3407.277 1679.688,3270.693 
		1712.495,3393.438 1720.537,3418.467 1709.264,3368.731 1677.857,3242.854 1709.916,3359.396 1705.797,3338.104 1696.734,3298.656 
		1696.271,3291.676 1714.66,3354.14 1692.013,3265.687 1690.693,3256.027 1689.998,3248.596 1721.841,3357.746 1695.422,3258.244 
		1711.288,3309.496 1745.177,3423.106 1734.881,3381.397 1721.561,3329.741 1728.832,3349.507 1704.161,3260.103 1729.08,3339.772 
		1754.081,3418.813 1743.672,3378.261 1754.135,3407.676 1736.026,3342.271 1730.818,3320.058 1749.936,3377.433 1763.371,3415.598 
		1710.241,3239.068 1753.407,3372.786 1720.479,3263.046 1752.552,3359.787 1758.769,3374.254 1763.867,3385 1743.532,3316.771 
		1756.083,3350.674 1725.323,3251.549 1767.652,3376.103 1728.017,3251.267 1779.549,3401.835 1730.983,3251.524 1781.358,3397.008 
		1744.07,3281.747 1725.276,3222.149 1769.914,3348.459 1731.549,3232.372 1734.802,3237.75 1754.247,3289.442 1767.744,3323.587 
		1757.136,3288.979 1757.573,3285.896 1802.357,3407.119 1768.144,3306.842 1747.976,3246.615 1797.555,3379.179 1761.569,3275.813 
		1736.763,3203.959 1791.765,3349.44 1775.121,3300.021 1799.449,3361.063 1752.197,3230.423 1760.679,3249.07 1800.873,3351.199 
		1767.918,3260.267 1775.256,3275.448 1764.402,3243.228 1820.674,3384.78 1820.4,3379.512 1791.748,3301.705 1784.555,3279.277 
		1816.007,3354.912 1828.782,3382.66 1813.757,3340.538 1798.315,3297.787 1793.649,3282.175 1760.396,3196.166 1769.829,3215.81 
		1763.22,3196.054 1817.478,3324.438 1829.022,3348.282 1784.233,3236.228 1801.877,3274.838 1820.068,3314.353 1793.183,3246.567 
		1830.036,3329.862 1813.869,3287.793 1801.346,3254.637 1851.399,3367.483 1820.723,3292.142 1774.781,3182.293 1832.312,3311.039 
		1805.115,3245.011 1801.889,3234.043 1802.469,3231.769 1784.684,3188.179 1805.802,3232.203 1815.424,3250.146 1805.935,3225.478 
		1819.776,3252.583 1791.355,3186.429 1816.852,3239.011 1825.991,3255.418 1837.685,3277.235 1798.627,3189.031 1843.462,3282.361 
		1873.461,3342.911 1793.111,3167.517 1852.273,3290.007 1864.408,3312.006 1839.373,3255.507 1876.25,3329.344 1806.734,3180.407 
		1853.338,3273.983 1880.999,3327.591 1870.526,3302.241 1890.466,3339.476 1876.449,3306.959 1873.079,3296.405 1839.414,3224.512 
		1859.541,3261.774 1821.828,3182.517 1883.351,3302.381 1833.758,3199.924 1878.912,3185.638 1844.88,3243.894 1810.926,3245.787 
		1901.745,3247.682 1883.613,3249.575 1838.228,3251.47 1896.894,3253.363 1899.483,3255.258 1871.78,3257.151 1773.792,3259.045 
		1848.196,3260.938 1904.797,3262.833 1834.82,3264.728 1899.124,3266.621 1935.388,3268.515 1871.271,3270.409 1858.743,3272.303 
		1788.789,3274.197 1821.795,3276.091 1785.452,3277.983 1815.841,3279.879 1863.781,3281.772 1921.498,3283.667 1785.584,3285.562 
		1844.754,3287.454 1812.685,3289.348 1874.618,3291.242 1896.994,3293.136 1827.357,3295.03 1799.834,3296.924 1829.995,3298.818 
		1931.785,3300.712 1777.354,3302.604 1844.53,3304.5 1897.544,3306.394 1840.553,3308.288 1843.953,3310.182 1785.028,3312.076 
		1815.174,3313.97 1848.747,3315.864 1936.341,3317.758 1897.874,3319.652 1920.62,3321.546 1797.412,3323.44 1928.729,3325.333 
		1899.754,3327.228 1918.623,3329.122 1798.25,3331.017 1930.965,3332.91 1873.988,3334.804 1831.712,3336.698 1886.93,3338.592 
		1848.832,3340.485 1807.351,3342.379 1798.706,3344.272 1916.731,3346.167 1801.73,3348.062 1890.722,3349.955 1811.105,3351.849 
		1806.482,3353.743 1927.77,3355.637 1831.5,3357.531 1870.308,3359.425 1822.723,3361.318 1928.834,3363.212 1851.937,3365.106 
		1919.937,3367 1794.977,3368.896 1836.452,3370.788 1885.605,3372.683 1862.685,3374.576 1894.934,3376.471 1920.927,3378.364 
		1819.74,3380.259 1883.91,3382.152 1795.447,3384.046 1836.05,3385.94 1899.277,3387.834 1829.047,3389.728 1881.611,3391.622 
		1781.945,3393.517 1800.936,3395.41 1940.16,3397.304 1941.241,3399.198 1786.019,3401.092 1832.587,3402.985 1789.223,3404.88 
		1874.873,3406.772 1884.709,3408.666 1815.471,3410.562 1796.459,3412.454 1935.584,3414.347 1909.585,3416.241 1798.764,3418.135 
		1914.782,3420.028 1831.336,3421.922 1924.698,3423.815 1899.85,3425.71 1868.654,3427.604 1928.295,3429.499 1845.215,3431.394 
		1774.699,3433.287 1867.93,3435.181 1895.527,3437.075 1804.907,3438.969 1871.843,3440.862 1936.093,3442.756 1938.789,3444.649 
		1802.619,3446.543 1940.621,3448.437 1897.916,3450.33 1790.358,3452.224 1848.032,3454.117 1898,3456.012 1901.724,3457.905 
		1908.261,3459.8 1831.188,3461.693 1913.256,3463.587 1876.16,3465.481 1878.221,3467.375 1815.401,3469.269 1781.06,3471.163 
		1879.545,3473.057 1860.396,3474.951 1804.379,3476.845 1823.215,3478.739 1915.328,3480.633 1900.543,3482.527 1856.853,3484.421 
		1917.977,3486.315 1783.068,3488.209 1823.396,3490.104 1772.978,3491.997 1938.677,3493.892 1795.014,3495.784 1908.717,3497.678 
		1920.217,3499.572 1936.41,3501.466 1803.287,3503.36 1860.486,3505.254 1819.317,3507.147 1876.865,3509.042 1797.773,3510.937 
		1914.904,3512.829 1876.712,3514.723 1869.782,3516.617 1866.97,3518.511 1861.757,3520.405 1933.199,3522.299 1833.28,3524.192 
		1831.049,3526.087 1824.941,3527.979 1841.67,3529.875 1878.554,3531.769 1810.889,3533.663 1791.66,3535.557 1909.517,3537.451 
		1836.574,3539.345 1785.871,3541.238 1826.812,3543.132 1822.643,3545.026 1906.519,3546.92 1924.937,3548.813 1871.371,3550.708 
		1788.286,3552.601 1806.169,3554.495 1917.224,3556.389 1846.227,3558.283 1909.92,3560.177 1792.624,3562.071 1781.155,3563.965 
		1828.236,3565.858 1795.676,3567.753 1891.962,3569.646 1857.509,3571.541 1804.913,3573.435 1794.451,3575.328 1838.53,3577.222 
		1861.71,3579.115 1815.858,3581.009 1785.961,3582.903 1881.028,3584.797 1908.197,3586.69 1813.893,3588.585 1869.65,3590.479 
		1922.394,3592.372 1910.561,3594.267 1880.456,3596.16 1920.26,3598.054 1927.876,3599.948 1923.109,3601.842 1780.875,3603.735 
		1924.824,3605.628 1936.209,3607.522 1910.539,3609.417 1882.925,3611.31 1804.729,3613.204 1830.992,3615.098 1775.577,3616.991 
		1820.482,3618.885 1943.223,3620.778 1810.894,3622.673 1867.033,3624.565 1876.499,3626.461 1907,3628.354 1806.449,3630.249 
		1847.317,3632.144 1905.046,3634.037 1880.303,3635.931 1823.443,3637.825 1786.992,3639.718 1898.567,3641.611 1869.898,3643.506 
		1807.881,3645.399 1803.213,3647.294 1797.492,3649.188 1810.899,3651.082 1797.514,3652.976 1853.149,3654.87 1871.027,3656.764 
		1797.656,3658.657 1822.738,3660.551 1817.876,3662.445 1787.02,3664.339 1924.438,3666.233 1801.132,3668.127 1925.693,3670.021 
		1782.67,3671.915 1828.11,3673.81 1929.953,3675.703 1914.575,3677.596 1797.461,3679.49 1847.604,3681.384 1911.429,3683.278 
		1933.491,3685.172 1806.477,3687.065 1900.098,3688.96 1771.742,3690.854 1846.57,3692.748 1819.2,3694.642 1898.022,3696.536 
		1914.23,3698.429 1939.837,3700.323 1831.098,3702.217 1889.773,3704.11 1869.666,3706.005 1868.039,3707.897 1928.846,3709.792 
		1929.556,3711.687 1806.529,3713.58 1882.787,3715.474 1795.13,3717.368 1942.142,3719.262 1924.794,3721.155 1790.93,3723.05 
		1896.644,3724.943 1935.096,3726.838 1886.633,3728.731 1857.896,3730.625 1782.702,3732.519 1782.873,3734.413 1830.027,3736.307 
		1799.294,3738.2 1770.249,3740.095 1803.134,3741.988 1911.371,3743.883 1901.915,3745.776 1880.445,3747.671 1787.55,3749.563 
		1922.982,3751.457 1896.666,3753.353 1872.707,3755.245 1790.353,3757.14 1923.978,3759.033 1798.197,3760.926 1795.707,3762.82 
		1816.133,3764.714 1785.214,3766.608 1895.914,3768.502 1867.457,3770.396 1800.877,3772.29 1801.852,3774.185 1771.7,3776.078 
		1798.398,3777.971 1804.881,3779.865 1927.114,3781.758 1777.897,3783.651 1841.119,3785.545 1902.265,3787.438 1780.669,3789.332 
		1817.022,3791.228 1861.879,3793.12 1859.246,3795.014 1936.203,3796.907 1898.298,3798.801 1932.639,3800.694 1821.716,3802.588 
		1871.948,3804.481 1916.09,3806.376 1780.271,3808.271 1847.73,3810.164 1858.303,3812.058 1827.464,3813.952 1897.292,3815.846 
		1852.62,3817.739 1909.84,3819.633 1930.318,3821.527 1914.999,3823.421 1885.314,3825.315 1777.802,3827.209 1815.688,3829.104 
		1820.673,3830.998 1873.416,3832.892 1879.97,3834.784 1861.656,3836.678 1793.248,3838.572 1797.148,3840.466 1853.632,3842.36 
		1850.014,3844.254 1899.67,3846.147 1776.817,3848.042 1836.04,3849.937 1788.212,3851.83 1939.377,3853.724 1818.945,3855.618 
		1942.904,3857.511 1774.292,3859.405 1811.233,3861.299 1920.683,3863.192 1924.926,3865.087 1821.478,3866.979 1822.479,3868.874 
		1930.499,3870.769 1853.875,3872.662 1778.004,3874.556 1925.366,3876.449 1864.846,3878.343 1825.928,3880.237 1911.777,3882.131 
		1904.744,3884.024 1905.137,3885.919 1880.88,3887.813 1865.391,3889.707 1849.389,3891.603 1906.862,3893.495 1860.729,3895.39 
		1848.943,3897.283 1805.994,3899.178 1901.692,3901.071 1885.6,3902.966 1866.97,3904.858 1857.911,3906.754 1862.229,3908.647 
		1781.732,3910.541 1805.391,3912.435 1874.725,3914.329 1863.05,3916.223 1875.43,3918.116 1819.9,3920.011 1827.648,3921.904 
		1775.636,3923.799 1925.403,3925.692 1859.485,3927.587 1916.763,3929.479 1804.348,3931.375 1822.452,3933.269 1849.352,3935.163 
		1842.899,3937.057 1786.05,3938.951 1870.439,3940.845 1887.734,3942.739 1941.782,3944.633 1775.631,3946.526 1938.021,3948.42 
		1897.938,3950.313 1868.045,3952.208 1839.886,3954.103 1808.087,3955.995 1825.816,3957.889 1803.287,3959.782 1846.326,3961.677 
		1840.833,3963.57 1824.058,3965.464 1875.73,3967.358 1773.066,3969.251 1938,3971.146 1777.755,3973.039 1814.926,3974.933 
		1937.702,3976.827 1916.382,3978.721 1869.052,3980.615 1909.883,3982.509 1935.488,3984.403 1799.013,3986.296 1799.633,3988.19 
		1913.141,3990.084 1850.713,3991.979 1834.074,3993.872 1931.027,3995.767 1910.121,3997.66 1927.834,3999.555 1791.358,4001.448 
		1878.561,4003.343 1796.131,4005.236 1836.204,4007.13 1776.543,4009.022 1901.836,4010.918 1818.21,4012.813 1790.176,4014.706 
		1856.503,4016.601 1933.343,4018.494 1865.678,4020.389 1798.229,4022.282 1868.045,4024.176 1852.186,4026.069 1792.984,4027.964 
		1823.655,4029.856 1827.707,4031.751 1836.887,4033.646 1847.323,4035.539 1907.668,4037.435 1884.932,4039.327 1891.279,4041.221 
		1839.482,4043.115 1913.113,4045.01 1889.054,4046.903 1807.402,4048.797 1775.557,4050.69 1848.938,4052.586 1942.519,4054.479 
		1874.592,4056.373 1893.667,4058.269 1912.912,4060.162 1927.907,4062.056 1779.879,4063.949 1872.456,4065.843 1824.147,4067.737 
		1901.793,4069.631 1827.639,4071.524 1842.137,4073.419 1880.832,4075.313 1863.802,4077.207 1840.685,4079.103 1840.489,4080.995 
		1843.212,4082.89 1926.075,4084.783 1870.704,4086.678 1823.81,4088.571 1812.986,4090.466 1912.144,4092.358 1816.027,4094.254 
		1826.006,4096.147 1903.516,4098.042 1931.145,4099.937 1818.135,4101.83 1772.262,4103.726 1921.117,4105.618 1915.026,4107.513 
		1923.521,4109.405 1929.01,4111.301 1844.154,4113.194 1838.143,4115.088 1840.78,4116.981 1934.444,4118.877 1890.154,4120.771 
		1821.96,4122.664 1883.295,4124.56 1821.44,4126.453 1916.139,4128.347 1934.964,4130.24 1935.075,4132.135 1935.637,4134.028 
		1893.238,4135.923 1931.897,4137.815 1786.564,4139.711 1862.526,4141.604 1812.149,4143.499 1783.932,4145.394 1934.582,4147.287 
		1862.298,4149.183 1892.656,4151.075 1855.205,4152.97 1770.821,4154.862 1892.561,4156.758 1800.871,4158.651 1841.649,4160.545 
		1890.372,4162.438 1891.172,4164.334 1830.383,4166.228 1840.536,4168.121 1890.372,4170.017 1870.953,4171.91 1800.13,4173.804 
		1889.329,4175.696 1778.777,4177.592 1853.314,4179.485 1840.283,4181.38 1780.186,4183.272 1834.917,4185.168 1928.406,4187.063 
		1860.332,4188.956 1828.12,4190.851 1925.17,4192.744 1774.471,4194.64 1787.767,4196.532 1886.077,4198.426 1884.918,4200.319 
		1833.334,4202.215 1801.704,4204.108 1888.651,4206.002 1887.237,4207.896 1829.672,4209.791 1872.511,4211.685 1912.048,4213.578 
		1805.724,4215.474 1781.749,4217.367 1914.719,4219.261 1907.535,4221.153 1790.034,4223.049 1885.548,4224.942 1864.354,4226.837 
		1873.269,4228.729 1846.316,4230.625 1907.048,4232.521 1772.845,4234.413 1927.453,4236.308 1773.385,4238.201 1845.432,4240.097 
		1923.02,4241.989 1832.639,4243.883 1850.396,4245.776 1898.286,4247.672 1844.24,4249.565 1864.221,4251.459 1808.139,4253.354 
		1929.434,4255.248 1877.373,4257.142 1795.702,4259.035 1777.798,4260.931 1941.968,4262.824 1827.173,4264.718 1803.112,4266.61 
		1881.262,4268.506 1847.858,4270.399 1914.983,4272.294 1887.613,4274.188 1900.442,4276.082 1862.971,4277.978 1784.381,4279.87 
		1882.887,4281.765 1855.496,4283.658 1818.987,4285.554 1904.76,4287.446 1770.699,4289.34 1804.961,4291.233 1936.14,4293.129 
		1910.496,4295.022 1941.204,4296.916 1871.425,4298.812 1785.912,4300.705 1782.766,4302.599 1906.301,4304.492 1847.058,4306.388 
		1897.068,4308.28 1800.447,4310.175 1789.213,4312.067 1903.377,4313.963 1783.37,4315.856 1786.129,4317.751 1800.664,4319.646 
		1850.357,4321.539 1797.074,4323.435 1822.495,4325.327 1941.803,4327.222 1857.71,4329.115 1892.312,4331.01 1840.775,4332.903 
		1830.928,4334.797 1909.92,4336.69 1925.229,4338.586 1909.268,4340.479 1852.667,4342.373 1866.439,4344.269 1782.226,4346.162 
		1838.758,4348.056 1881.553,4349.949 1828.729,4351.845 1797.408,4353.737 1932.75,4355.632 1902.996,4357.524 1908.182,4359.42 
		1924.136,4361.313 1937.258,4363.208 1825.091,4365.103 1791.041,4366.996 1857.498,4368.892 1927.32,4370.784 1853.506,4372.679 
		1798.006,4374.571 1787.734,4376.467 1837.841,4378.36 1937.791,4380.254 1842.291,4382.147 1815.509,4384.043 1813.808,4385.937 
		1835.065,4387.83 1893.254,4389.726 1792.041,4391.619 1823.168,4393.513 1861.534,4395.405 1911.487,4397.301 1871.435,4399.194 
		1839.552,4401.089 1885.578,4402.981 1911.735,4404.877 1893.111,4406.771 1906.063,4408.665 1930.758,4410.56 1855.279,4412.453 
		1791.099,4414.349 1825.074,4416.241 1942.545,4418.135 1854.542,4420.028 1842.316,4421.924 1868.167,4423.817 1830.61,4425.711 
		1870.885,4427.604 1826.24,4429.5 1821.122,4431.394 1770.497,4433.287 1909.055,4435.183 1900.359,4437.076 1841.003,4438.97 
		1793.689,4440.862 1889.234,4442.758 1833.746,4444.651 1919.48,4446.546 1864.835,4448.438 1852.991,4450.334 1923.914,4452.229 
		1867.287,4454.122 1822.347,4456.017 1857.732,4457.91 1891.999,4459.806 1911.916,4461.698 1860.455,4463.592 1868.702,4465.485 
		1775.886,4467.381 1831.107,4469.274 1887.333,4471.168 1871.096,4473.063 1810.629,4474.957 1838.73,4476.851 1826.14,4478.744 
		1816.996,4480.64 1844.08,4482.533 1930.499,4484.427 1887.803,4486.319 1803.207,4488.215 1790.277,4490.108 1864.66,4492.003 
		1931.632,4493.896 1921.286,4495.791 1932.618,4497.687 1783.115,4499.579 1893.375,4501.474 1828.502,4503.367 1802.165,4505.263 
		1829.344,4507.155 1876.06,4509.049 1911.232,4510.942 1824.021,4512.838 1810.109,4514.729 1800.367,4516.624 1923.623,4518.519 
		1770.492,4520.412 1860.952,4522.306 1813.447,4524.199 1923.835,4526.093 1776.225,4527.985 1864.459,4529.881 1790.823,4531.774 
		1911.477,4533.668 1863.337,4535.563 1796.449,4537.457 1824.523,4539.351 1864.066,4541.244 1913.034,4543.14 1790.353,4545.03 
		1858.568,4546.926 1874.19,4548.817 1850.512,4550.712 1838.625,4552.604 1844.182,4554.5 1828.634,4556.394 1896.591,4558.287 
		1830.68,4560.181 1790.907,4562.073 1893.393,4563.967 1785.038,4565.858 1846.194,4567.754 1870.984,4569.647 1857.143,4571.542 
		1923.464,4573.437 1841.188,4575.33 1779.529,4577.226 1812.224,4579.117 1925.138,4581.011 1860.619,4582.903 1938.005,4584.799 
		1878.518,4586.692 1919.767,4588.587 1914.973,4590.479 1924.853,4592.373 1886.966,4594.269 1896.872,4596.16 1786.75,4598.056 
		1845.023,4599.948 1852.735,4601.842 1886.315,4603.735 1813.58,4605.629 1848.891,4607.522 1898.09,4609.418 1874.603,4611.312 
		1789.504,4613.204 1867.043,4615.099 1934.228,4616.992 1831.484,4618.888 1808.463,4620.78 1805.178,4622.674 1845.262,4624.567 
		1786.999,4626.461 1844.287,4628.354 1835.579,4630.248 1789.08,4632.142 1812.584,4634.034 1808.346,4635.929 1814.284,4637.821 
		1796.157,4639.717 1846.607,4641.61 1829.927,4643.504 1890.584,4645.397 1843.308,4647.293 1912.107,4649.187 1896.914,4651.079 
		1775.685,4652.974 1930.504,4654.867 1799.246,4656.763 1816.807,4658.655 1778.688,4660.549 1775.589,4662.44 1801.767,4664.336 
		1850.713,4666.229 1861.693,4668.124 1911.562,4670.019 1844.111,4671.91 1856,4673.806 1822.107,4675.696 1808.913,4677.592 
		1803.616,4679.483 1893.816,4681.377 1804.861,4683.271 1841.469,4685.164 1926.568,4687.058 1790.113,4688.949 1913.129,4690.845 
		1941.013,4692.735 1803.154,4694.629 1911.99,4696.521 1856.036,4698.416 1849.69,4700.31 1833.783,4702.202 1780.117,4704.097 
		1832.083,4705.987 1890.802,4707.883 1833.137,4709.776 1903.557,4711.67 1941.559,4713.563 1876.684,4715.455 1919.518,4717.349 
		1812.409,4719.241 1847.444,4721.134 1934.388,4723.026 1897.932,4724.92 1931.287,4726.813 1796.836,4728.707 1826.499,4730.601 
		1854.517,4732.494 1921.869,4734.388 1862.145,4736.28 1853.446,4738.174 1906.418,4740.067 1922.363,4741.961 1902.721,4743.854 
		1914.602,4745.748 1915.459,4747.642 1915.937,4749.533 1883.476,4751.427 1814.629,4753.319 1886.908,4755.212 1837.206,4757.104 
			"/>
</g>
<g>
	<polygon fill="#D89E41" points="496.505,3999.999 502,3994.499 502,4005.497 496.508,4001 507.506,4001 507.506,4001 
		561.164,3086.342 723.808,2184.293 892.786,1283.504 1055.416,381.642 1109.079,-532.136 1033.073,-538.062 951.583,-527.072 
		870.091,-538.073 788.599,-527.078 701.625,-532.989 647.962,381.579 485.333,1283.381 316.354,2184.046 153.711,3086.343 
		100.053,4001 89.056,4001 100.053,4001 95,3994.499 95,4005.497 89.278,3999.999 164.725,4912.731 305.606,5818.058 
		496.141,6714.519 637.063,7619.842 712.599,8532.164 788.601,8538.074 870.089,8527.076 951.58,8538.074 1033.072,8527.076 
		1120.046,8532.987 1044.502,7619.841 903.565,6714.517 713.003,5818.056 572.065,4912.731 	"/>
	<path fill="#BC8535" d="M445.597,4001c27.275,0-5.523,0,10.06,0c24.935,0-8.2,0,29.426,0c-32.074,0-46.505-4.349-39.75-4.349
		c-5.264,0,13.284,7.446,2.757,7.446c-2.019,0-7.672-7.323-9.589-7.323c32.155,0,1.565,4.227,50.138,4.227
		c-18.076,0-52.287,0-15.384,0c-40.824,0,20.274,0-10.601,0c-9.411,0,5.844,0-27.907,0c1.805,0,48.76,0,32.181,0
		c4.626,0,4.654,0,4.926,0c-25.047-139,4.212-278.229,11.903-416.96c14.732-138.199,20.013-275.923,48.25-414.12
		c-2.809-137.447-1.826-276.096,46.328-413.542c2.748-136.744,47.752-272.228,90.922-408.972
		c3.489-136.262,27.766-274.023,55.751-410.285c11.725-136.091,59.927-270.68,106.366-406.772
		c5.697-136.26,53.874-274,47.135-410.263c25.357-136.743,59.906-272.167,91.16-408.913
		c23.156-137.445,15.765-275.972,52.975-413.42c-15.695-138.195,54.25-275.67,36.021-413.87
		c-4.631-138.73,12.697-277.468,38.532-416.204c-57.114,0-68.413-4.105-49.757-4.105c15.705,0,1.646,7.698-49.727,7.698
		c17.682,0,0.568-7.698-29.789-7.698c38.864,0,15.021,7.698-0.031,7.698c10.351,0-16.34-7.698-47.186-7.698
		c-13.439,0-0.502,7.698,14.84,7.698c-30.924,0-68.441-7.698-59.617-7.698c-6.801,0,2.417,7.698-1.266,7.698
		c-12.42,0-44.1-7.698-48.411-7.698c-0.528,0-22.817,7.698-53.56,7.698c28.469,0,15.934-4.105-25.626-4.105
		c-2.419,138.736,20.851,277.986,27.252,416.716c-5.057,138.2-33.209,275.673-60.648,413.868
		C689.039,435.2,684.704,573.725,632.067,711.17c10.722,136.747,0.021,272.167-62.323,408.911
		c-15.678,136.263-37.02,273.995-54.004,410.255c-50.151,136.092-48.947,270.666-82.475,406.756
		c-24.892,136.263-75.471,273.993-105.279,410.254c-21.861,136.745-47.256,272.166-89.629,408.91
		c5.862,137.446,15.746,275.97-11.635,413.417c-27.825,138.196-60.955,276.171-33.103,414.369
		C148.998,3722.772,132.372,3862,159.42,4001c26.733,0-31.708,0-8.246,0c14.315,0-7.835,0-1.45,0c18.012,0-11.356,0,25.846,0
		c-33.36,0-14.691,0,2.138,0c-19.935,0-9.257,0-16.673,0c-22.104,0-27.87,0,15.036,0c-6.701,0-24.877,0-49.121,0
		c-1.417,0,16.642,0,42.423,0c-20.571,0-31.698-4.349,4.188-4.349c-7.877,0-7.583,7.446-15.813,7.446
		c6.033,0,13.688-3.975,22.021-3.975c-29,138.735-28.72,277.145-7.893,415.878c-12.778,138.197,21.979,277.087,61.945,415.285
		c6.186,137.445-1.682,273.801,51.581,411.247c-12.144,136.744,36.035,274.806,79.216,411.549
		c-20.374,136.265,39.293,271.054,73.901,407.313c5.24,136.092,9.176,273.699,52.673,409.789
		c28.858,136.263,48.834,271.054,71.388,407.314c60.486,136.746,44.946,274.813,67.29,411.557
		c50.282,137.447,98.373,273.817,82.742,411.265c37.634,138.196,3.089,277.118,28.676,415.315
		c18.311,138.732,36.556,276.948,15.986,415.684c15.288,0,13.9,4.105,34.09,4.105c32.679,0,21.965-7.698,34.487-7.698
		c19.329,0-10.501,7.698,45.386,7.698c-30.99,0,21.582-7.698,4.139-7.698c24.67,0,2.64,7.698,59.78,7.698
		c-8.788,0-18.596-7.698-6.295-7.698c42.854,0,46.462,7.698,11.283,7.698c17.584,0,16.229-7.698,54.614-7.698
		c-15.172,0,38.39,7.698,44.174,7.698c-38.164,0-6.411-7.698-16.491-7.698c29.772,0,46.021,4.105,53.919,4.105
		c-22.837-138.733-23.999-277.464-17.977-416.196c0.722-138.197-23.577-277.119-23.8-415.315
		c-8.361-137.446-48.521-273.815-95.516-411.265c-13.73-136.744-7.125-274.813-57.643-411.559
		c-39.808-136.262-56.689-271.055-92.061-407.314c-29.039-136.092-16.436-273.701-59.435-409.793
		c-41.471-136.262-83.321-271.053-101.133-407.313c-4.188-136.746-14.225-274.813-59.144-411.56
		c1.093-137.446-21.635-273.815-66.131-411.263c-6.938-138.198-27.159-276.619-44.937-414.813
		C452.593,4277.705,478.91,4139,445.597,4001z"/>
	<path fill="#25D7F4" d="M434.599,4001c27.276,0-5.523,0,10.06,0c24.934,0-8.201,0,29.426,0c-32.074,0-46.506-4.349-39.75-4.349
		c-5.265,0,13.284,7.446,2.757,7.446c-2.02,0-7.672-7.323-9.589-7.323c32.155,0,1.565,4.227,50.138,4.227
		c-18.074,0-52.288,0-15.384,0c-40.824,0,20.275,0-10.601,0c-9.411,0,5.843,0-27.908,0c1.805,0,48.76,0,32.181,0
		c4.626,0,4.654,0,4.925,0c-25.046-139,4.214-278.229,11.904-416.96c14.732-138.199,20.012-275.923,48.25-414.12
		c-2.808-137.447-1.826-276.096,46.329-413.542c2.748-136.744,47.751-272.228,90.922-408.972
		c3.489-136.262,27.766-274.023,55.75-410.285c11.725-136.091,59.928-270.68,106.367-406.772
		c5.696-136.26,53.873-274,47.134-410.263c25.358-136.743,59.906-272.167,91.161-408.913
		c23.156-137.445,15.765-275.972,52.974-413.42c-15.694-138.195,54.25-275.67,36.021-413.87
		c-4.631-138.73,12.696-277.468,38.532-416.204c-57.114,0-68.413-4.105-49.759-4.105c15.707,0,1.648,7.698-49.725,7.698
		c17.681,0,0.569-7.698-29.789-7.698c38.864,0,15.021,7.698-0.032,7.698c10.352,0-16.339-7.698-47.186-7.698
		c-13.439,0-0.502,7.698,14.841,7.698c-30.924,0-68.442-7.698-59.618-7.698c-6.799,0,2.417,7.698-1.266,7.698
		c-12.42,0-44.098-7.698-48.41-7.698c-0.527,0-22.818,7.698-53.56,7.698c28.468,0,15.934-4.105-25.626-4.105
		c-2.419,138.736,20.85,277.986,27.252,416.716c-5.057,138.2-33.209,275.673-60.647,413.868
		C678.04,435.2,673.706,573.725,621.069,711.17c10.722,136.747,0.021,272.167-62.324,408.911
		c-15.677,136.263-37.019,273.995-54.003,410.255c-50.152,136.09-48.947,270.664-82.475,406.754
		c-24.892,136.263-75.471,273.993-105.279,410.253c-21.862,136.745-47.257,272.165-89.63,408.91
		c5.863,137.447,15.747,275.97-11.635,413.417c-27.825,138.196-60.954,276.171-33.103,414.369
		C138,3722.772,121.374,3862,148.422,4001c26.732,0-31.708,0-8.246,0c14.315,0-7.835,0-1.45,0c18.012,0-11.356,0,25.846,0
		c-33.359,0-14.691,0,2.139,0c-19.935,0-9.257,0-16.673,0c-22.104,0-27.87,0,15.036,0c-6.701,0-24.878,0-49.122,0
		c-1.417,0,16.643,0,42.423,0c-20.571,0-31.698-4.349,4.188-4.349c-7.877,0-7.584,7.446-15.813,7.446
		c6.033,0,13.688-3.975,22.02-3.975c-28.999,138.735-28.719,277.145-7.892,415.878c-12.779,138.197,21.978,277.087,61.945,415.285
		c6.186,137.445-1.682,273.801,51.581,411.247c-12.144,136.744,36.036,274.806,79.215,411.549
		c-20.374,136.265,39.293,271.054,73.902,407.313c5.239,136.092,9.175,273.699,52.672,409.789
		c28.858,136.263,48.834,271.054,71.388,407.314c60.486,136.746,44.947,274.813,67.291,411.557
		c50.282,137.447,98.372,273.817,82.742,411.265c37.634,138.196,3.09,277.118,28.676,415.315
		c18.312,138.732,36.556,276.948,15.987,415.684c15.289,0,13.9,4.105,34.091,4.105c32.678,0,21.963-7.698,34.487-7.698
		c19.328,0-10.5,7.698,45.386,7.698c-30.989,0,21.583-7.698,4.14-7.698c24.668,0,2.638,7.698,59.779,7.698
		c-8.788,0-18.594-7.698-6.295-7.698c42.854,0,46.462,7.698,11.285,7.698c17.582,0,16.228-7.698,54.611-7.698
		c-15.171,0,38.39,7.698,44.176,7.698c-38.165,0-6.413-7.698-16.492-7.698c29.772,0,46.021,4.105,53.919,4.105
		c-22.838-138.733-23.999-277.464-17.977-416.196c0.722-138.197-23.575-277.119-23.8-415.315
		c-8.361-137.446-48.521-273.815-95.515-411.265c-13.732-136.744-7.127-274.813-57.644-411.559
		c-39.809-136.262-56.688-271.055-92.061-407.314c-29.039-136.092-16.434-273.701-59.434-409.793
		c-41.472-136.262-83.321-271.053-101.134-407.313c-4.188-136.746-14.225-274.813-59.143-411.56
		c1.092-137.446-21.635-273.816-66.131-411.263c-6.938-138.198-27.159-276.619-44.937-414.813
		C441.596,4277.705,467.913,4139,434.599,4001z"/>
</g>
<g>
	<ellipse fill="#43D307" cx="1722.67" cy="629.568" rx="206.985" ry="332.574"/>
</g>
<g>
	<ellipse fill="#70ED37" cx="1785.739" cy="629.568" rx="150.854" ry="242.384"/>
</g>
<g>
	<path fill="#70ED37" d="M1161.1,399c23.802,45.232-12.866,81.9-58.1,58.1c-45.232,23.801-81.9-12.867-58.1-58.1
		c-23.802-45.232,12.866-81.9,58.1-58.1C1148.232,317.1,1184.9,353.768,1161.1,399z"/>
</g>
<g>
	<path fill="#9BEF6F" d="M1145.181,408c15.642,29.725-8.456,53.821-38.181,38.181c-29.725,15.642-53.821-8.456-38.181-38.181
		c-15.642-29.725,8.456-53.821,38.181-38.181C1136.725,354.179,1160.821,378.275,1145.181,408z"/>
</g>
<g>
	<path fill="#70ED37" d="M703.465,170.5c29.07,55.248-15.717,100.035-70.965,70.965c-55.248,29.07-100.035-15.717-70.965-70.965
		c-29.07-55.248,15.717-100.035,70.965-70.965C687.748,70.465,732.535,115.252,703.465,170.5z"/>
</g>
<g>
	<path fill="#9BEF6F" d="M684.021,181.493c19.104,36.307-10.329,65.739-46.636,46.635c-36.306,19.104-65.739-10.328-46.635-46.635
		c-19.104-36.307,10.329-65.738,46.635-46.635C673.692,115.754,703.125,145.186,684.021,181.493z"/>
</g>
<g>
	<path fill="#70ED37" d="M261.627,422.9c22.746,43.229-12.298,78.273-55.527,55.527c-43.23,22.746-78.274-12.298-55.528-55.527
		c-22.746-43.229,12.298-78.273,55.528-55.527C249.329,344.627,284.373,379.671,261.627,422.9z"/>
</g>
<g>
	<path fill="#9BEF6F" d="M246.412,431.502c14.948,28.409-8.083,51.438-36.49,36.49c-28.409,14.948-51.438-8.081-36.49-36.49
		c-14.948-28.409,8.082-51.438,36.49-36.49C238.33,380.064,261.36,403.093,246.412,431.502z"/>
</g>
<g>
	<path fill="#70ED37" d="M376.627,170.9c22.746,43.23-12.298,78.274-55.527,55.528c-43.229,22.746-78.273-12.298-55.527-55.528
		c-22.746-43.229,12.298-78.273,55.527-55.527C364.329,92.627,399.373,127.671,376.627,170.9z"/>
</g>
<g>
	<path fill="#9BEF6F" d="M361.412,179.502c14.948,28.409-8.083,51.438-36.49,36.49c-28.409,14.948-51.438-8.081-36.49-36.49
		c-14.948-28.409,8.082-51.438,36.49-36.49C353.33,128.064,376.36,151.093,361.412,179.502z"/>
</g>
<g>
	<path fill="#70ED37" d="M1054.627,1001.9c22.746,43.229-12.298,78.273-55.527,55.527c-43.229,22.746-78.272-12.298-55.526-55.527
		c-22.746-43.229,12.297-78.273,55.526-55.527C1042.329,923.627,1077.373,958.671,1054.627,1001.9z"/>
</g>
<g>
	<path fill="#9BEF6F" d="M1039.413,1010.502c14.947,28.409-8.083,51.438-36.491,36.49c-28.408,14.948-51.438-8.081-36.49-36.49
		c-14.947-28.409,8.082-51.438,36.49-36.49C1031.33,959.064,1054.36,982.093,1039.413,1010.502z"/>
</g>
<g>
	<path fill="#70ED37" d="M474.627,1333.9c22.746,43.229-12.298,78.273-55.527,55.527c-43.229,22.746-78.272-12.298-55.526-55.527
		c-22.746-43.229,12.297-78.273,55.526-55.527C462.329,1255.627,497.373,1290.671,474.627,1333.9z"/>
</g>
<g>
	<path fill="#9BEF6F" d="M459.413,1342.502c14.948,28.409-8.083,51.438-36.491,36.49c-28.408,14.948-51.438-8.081-36.49-36.49
		c-14.947-28.409,8.082-51.438,36.49-36.49C451.33,1291.063,474.361,1314.093,459.413,1342.502z"/>
</g>
<g>
	<path fill="#70ED37" d="M390.627,1199.9c22.746,43.229-12.298,78.273-55.527,55.527c-43.229,22.746-78.272-12.298-55.526-55.527
		c-22.746-43.229,12.297-78.273,55.526-55.527C378.329,1121.627,413.373,1156.671,390.627,1199.9z"/>
</g>
<g>
	<path fill="#9BEF6F" d="M375.413,1208.502c14.948,28.409-8.083,51.438-36.491,36.49c-28.408,14.948-51.438-8.081-36.49-36.49
		c-14.948-28.409,8.082-51.438,36.49-36.49C367.33,1157.063,390.361,1180.093,375.413,1208.502z"/>
</g>
<g>
	<path fill="#26B7C6" d="M477.64,4001c-5.167,0-9.432-0.048-12.979-0.134c2.951,0.084,6.086,0.134,9.423,0.134
		C475.318,4001,476.511,4001,477.64,4001z"/>
	<path fill="#26B7C6" d="M435.068,4002.998c0.818,0.659,1.529,1.101,2.022,1.101c4.671,0,3.615-1.468,1.458-3.099
		c-1.15,0-2.455,0-3.949,0C434.76,4001.666,434.91,4002.332,435.068,4002.998z"/>
	<path fill="#26B7C6" d="M461.905,4526.019c-4.749-36.537-9.615-73.064-14.313-109.578
		c-5.969-138.064,20.058-276.102-12.524-413.441c-2.535-2.043-6.117-6.225-7.566-6.225c2.009,0,3.772,0.018,5.326,0.048
		c0.21-0.108,0.704-0.171,1.506-0.171c-0.495,0-0.779,0.065-0.897,0.185c16.522,0.384,8.03,2.49,20.97,3.552
		c-11.192-0.744-18.219-2.004-20.69-2.854c0.86,0.857,3.171,2.21,4.833,3.467c0.609,0,1.173,0,1.694,0c2.12,0,3.537,0,4.416,0
		c0.666,0,1.023,0,1.158,0c0.032,0,0.057,0,0.063,0c0.637,0,1.23,0,1.784,0c1.671,0,2.976,0,3.991,0c1.539,0,2.413,0,2.881,0
		c0.387,0,0.502,0,0.484,0c0.213,0,0.505,0,0.908,0c0.751,0,1.877,0,3.533,0c0.395,0,0.825,0,1.282,0c0.037,0,0.073,0,0.109,0
		c-0.015-0.084-0.028-0.167-0.044-0.251c1.181,0.044,2.458,0.084,3.853,0.118c-1.323-0.038-2.61-0.082-3.854-0.134
		c-24.96-138.911,4.266-278.05,11.951-416.693c0.971-9.111,1.899-18.219,2.798-27.326c-7.284,7.356-13.894,16.187-19.457,26.064
		c-15.527,27.573-17.423,38.538-39.094,15.061c-25.57-27.702-36.508-36.679-41.246,8.942
		c-5.976,57.535,16.576,126.427-20.927,174.435c-20.982-14.372-53.688-144.095-69.071-58.091
		c-7.229,40.418-0.011,88.695-0.011,129.68c0,47.395-1.235,106.195,0.155,147.357c-10.573-22.906-20.625-86.543-53.707-77.896
		c-2.241,40.942,5.582,75.313,15.146,113.557c9.363,37.44,8.403,75.627,8.403,116.346c0,79.223,0.757,159.327-2.99,237.691
		c-1.206,25.223-0.215,63.633,20.917,80.996c52.203,42.899,10.308-51.482,6.674-66.732c-8.203-34.424-2.033-98.361,35.181-107.273
		c59.532-14.258,57.319,43.023,57.229,84.067c-0.092,42.101,6.645,78.097,29.913,114.188
		C413.466,4511.849,439.892,4527.729,461.905,4526.019z"/>
	<path fill="#26B7C6" d="M433.715,3997.533c-0.303-0.304-0.43-0.544-0.278-0.697c-0.202-0.005-0.398-0.01-0.608-0.014
		C432.525,3996.978,432.828,3997.228,433.715,3997.533z"/>
</g>
<ellipse fill="#2F3030" stroke="#C69C6D" stroke-miterlimit="10" cx="466.5" cy="4078.5" rx="51.5" ry="47.5"/>
<ellipse fill="#2F3030" stroke="#C69C6D" stroke-miterlimit="10" cx="503.778" cy="4036.5" rx="28.222" ry="27.5"/>
<ellipse fill="#2F3030" stroke="#C69C6D" stroke-miterlimit="10" cx="475.914" cy="3946.163" rx="20.358" ry="19.837"/>
<ellipse fill="#2F3030" stroke="#C69C6D" stroke-miterlimit="10" cx="544.355" cy="3988.245" rx="40.8" ry="39.755"/>
<ellipse fill="#2F3030" stroke="#C69C6D" stroke-miterlimit="10" cx="626.355" cy="4113.245" rx="40.8" ry="39.755"/>
<ellipse fill="#2F3030" stroke="#C69C6D" stroke-miterlimit="10" cx="660.04" cy="4085.245" rx="28.485" ry="27.755"/>
<ellipse fill="#2F3030" stroke="#C69C6D" stroke-miterlimit="10" cx="678.559" cy="4125.867" rx="34.005" ry="33.133"/>
<ellipse fill="#2F3030" stroke="#C69C6D" stroke-miterlimit="10" cx="484" cy="3990" rx="34" ry="36"/>
<path fill="#E2AF66" d="M1520,3782c0,6.626-5.373,11.996-12,12.024c-294.667,1.258-589.333,48.192-884,49.449
	c-6.627,0.028-12-5.348-12-11.975c0-0.333,0-0.667,0-1c0-6.628,5.372-11.999,12-12.025c294.667-1.257,589.333-48.191,884-49.449
	c6.626-0.027,12,5.349,12,11.976C1520,3781.333,1520,3781.667,1520,3782z"/>
<path fill="#E2AF66" d="M1509,3894c0,6.627-5.373,11.998-12,12.024c-294.667,1.258-589.333,48.192-884,49.449
	c-6.628,0.03-12-5.352-12-11.975c0-0.333,0-0.667,0-1c0-6.628,5.373-11.996,12-12.025c294.667-1.257,589.333-48.191,884-49.449
	c6.626-0.028,12,5.349,12,11.976C1509,3893.333,1509,3893.667,1509,3894z"/>
<g>
	<g>
		<path fill="#A67C52" d="M1712,3781c0-6.627-5.373-12-12-12h-248c-6.627,0-12,5.373-12,12v113c0,6.627,5.373,12,12,12h248
			c6.627,0,12-5.373,12-12V3781z"/>
		<path fill="#534741" d="M1712,3780.509c0-4.068-2.189-7.992-5.688-10c-1.73-1.019-3.691-1.562-5.695-1.576
			c-2.064,0-4.13,0.01-6.204,0.047c-8.307,0.138-16.604,0.195-24.91,0.418c-16.612,0.342-33.221,0.898-49.833,1.332
			c-33.225,0.905-66.447,1.123-99.672,0.685c-16.612-0.222-33.224-0.627-49.837-0.965l-12.459-0.255l-3.114-0.063
			c-1.038-0.01-2.107-0.071-2.994-0.021c-1.777,0.102-3.574,0.697-5.096,1.703c-1.538,0.996-2.781,2.438-3.608,4.082
			c-0.4,0.828-0.719,1.703-0.895,2.611c-0.193,0.936-0.229,1.771-0.229,2.859c-0.041,4.152-0.124,8.307-0.133,12.459
			c-0.1,16.613-0.098,33.225,0.054,49.837l0.116,12.46l0.201,12.459l0.41,24.919c0.047,3.511,2.083,6.836,5.086,8.483
			c1.486,0.838,3.178,1.26,4.867,1.241l6.198-0.114l24.92-0.42c16.611-0.242,33.226-0.37,49.838-0.482l49.837-0.355
			c8.307-0.08,16.612-0.081,24.919-0.084l24.919-0.001l24.919,0.146c8.306,0.044,16.611,0.085,24.919,0.217l12.459,0.162
			l3.114,0.063l1.558,0.033l0.39,0.008l0.313,0.004l0.381-0.002l0.24-0.015c1.492-0.077,3.048-0.58,4.352-1.436
			c1.318-0.853,2.409-2.071,3.141-3.479c0.354-0.709,0.64-1.458,0.812-2.24c0.094-0.389,0.146-0.787,0.19-1.188l0.038-0.625
			l0.021-0.778l0.352-12.46l0.704-24.918c0.246-8.306,0.467-16.612,0.646-24.918c0.225-8.307,0.218-16.612,0.36-24.919L1712,3780.5
			V3780.509z M1713,3780.5l0.094,24.919c0.145,8.306,0.174,16.612,0.398,24.919c0.178,8.306,0.38,16.612,0.626,24.918l0.694,24.918
			l0.348,12.46l0.019,0.778c0.004,0.278,0.005,0.623-0.005,0.932c-0.027,0.634-0.079,1.271-0.188,1.899
			c-0.197,1.263-0.595,2.494-1.122,3.664c-1.077,2.328-2.759,4.385-4.864,5.887c-2.109,1.511-4.592,2.469-7.239,2.729l-0.537,0.045
			l-0.396,0.02l-0.857,0.022l-1.557,0.033l-3.115,0.063l-12.459,0.162c-8.307,0.133-16.613,0.174-24.919,0.218l-24.919,0.146
			l-24.919-0.001c-8.306-0.003-16.612-0.004-24.919-0.084l-49.837-0.354c-16.612-0.113-33.226-0.24-49.838-0.483l-24.919-0.42
			l-6.26-0.123c-2.463-0.067-4.91-0.789-6.995-2.075c-4.213-2.526-6.858-7.357-6.729-12.19l0.41-24.919l0.201-12.459l0.116-12.46
			c0.15-16.612,0.152-33.226,0.054-49.837c-0.009-4.153-0.092-8.306-0.133-12.459c-0.008-0.509-0.02-1.036,0.004-1.63
			c0.032-0.573,0.085-1.147,0.191-1.714c0.19-1.137,0.557-2.242,1.035-3.292c0.981-2.093,2.511-3.925,4.396-5.283
			c1.892-1.361,4.133-2.228,6.495-2.461c1.186-0.108,2.194-0.08,3.231-0.115l3.115-0.063l12.459-0.255
			c16.613-0.338,33.227-0.743,49.838-0.965c33.226-0.438,66.45-0.223,99.676,0.684c16.611,0.434,33.226,0.991,49.838,1.332
			c8.307,0.223,16.611,0.281,24.919,0.419l6.234,0.055c2.148,0.034,4.364,0.636,6.205,1.74c3.72,2.168,6.128,6.399,6.128,10.675
			V3780.5L1713,3780.5z"/>
	</g>
	<path fill="#FF3030" d="M1915,3769h-23v-1c0-6.627-5.373-12-12-12h-186c-6.627,0-12,5.373-12,12v139c0,6.627,5.373,12,12,12h186
		c6.627,0,12-5.373,12-12v-1h23c6.627,0,12-5.373,12-12v-113C1927,3774.373,1921.627,3769,1915,3769z"/>
	<path fill="#2F3030" d="M1888,3910.5c0,4.144-3.357,7.5-7.5,7.5l0,0c-4.143,0-7.5-3.356-7.5-7.5v-144c0-4.142,3.357-7.5,7.5-7.5
		l0,0c4.143,0,7.5,3.358,7.5,7.5V3910.5z"/>
</g>
<rect x="169.598" y="685.139" fill="#FFFFFF" width="125.747" height="124.724"/>
<path fill="#F4BA16" d="M286.913,750.615c-0.028-0.196-0.072-0.386-0.122-0.573c0.05-0.187,0.094-0.376,0.122-0.573
	c3.327-23.373,6.653-46.746,9.979-70.119c0.382-2.639-1.921-5.156-5.148-5.573c-39.111-5.056-78.71-5.056-117.821,0
	c-3.228,0.417-5.531,2.933-5.148,5.573c3.327,23.373,6.653,46.747,9.979,70.119c0.028,0.196,0.072,0.387,0.122,0.573
	c-0.05,0.187-0.094,0.376-0.122,0.572c-3.327,23.373-6.653,46.746-9.979,70.12c-0.382,2.638,1.921,5.156,5.148,5.573
	c39.111,5.056,78.71,5.056,117.821,0c3.228-0.417,5.531-2.933,5.148-5.573C293.566,797.361,290.24,773.988,286.913,750.615z"/>
<g>
	<path fill="#D39D18" d="M287.034,751.468c-0.04-0.284-0.081-0.568-0.121-0.853c-0.028-0.196-0.072-0.386-0.122-0.573
		c0.05-0.187,0.094-0.376,0.122-0.573c0.059-0.411,0.117-0.822,0.175-1.233l0.716-42.729l0.565,33.729
		c0.378-2.658,0.756-5.316,1.135-7.974l-0.971-57.874c-0.732-0.089-1.464-0.18-2.197-0.266l-2.038,121.454l-2.046-121.914
		c-0.724-0.078-1.449-0.152-2.173-0.228l-2.049,122.141l-2.055-122.554c-0.716-0.067-1.434-0.126-2.15-0.19l-2.059,122.744
		l-2.065-123.109c-0.711-0.057-1.422-0.101-2.134-0.155L265.5,794.577l-2.073-123.564c-0.706-0.047-1.412-0.093-2.118-0.137
		l-2.074,123.701l-2.078-123.934c-0.702-0.037-1.403-0.085-2.105-0.119l-2.079,124.053l-2.082-124.221
		c-0.699-0.027-1.397-0.06-2.096-0.084l-2.084,124.305l-2.087-124.425c-0.698-0.018-1.395-0.036-2.092-0.051l-2.089,124.476
		l-2.089-124.546c-0.695-0.009-1.391-0.012-2.086-0.017l-2.087,124.563l-2.087-124.585c-0.695,0.001-1.39,0.012-2.084,0.017
		l-2.087,124.568l-2.085-124.535c-0.695,0.011-1.391,0.03-2.086,0.044l-2.086,124.491l-2.084-124.39
		c-0.697,0.02-1.395,0.037-2.092,0.06l-2.083,124.331l-2.083-124.163c-0.701,0.03-1.401,0.052-2.102,0.084l-2.082,124.079
		l-2.077-123.853c-0.704,0.04-1.408,0.076-2.111,0.119l-2.073,123.734l-2.068-123.46c-0.708,0.05-1.416,0.101-2.123,0.154
		l-2.064,123.307l-2.058-122.985c-0.713,0.06-1.426,0.126-2.139,0.189l-2.055,122.796l-2.049-122.428
		c-0.72,0.07-1.438,0.153-2.158,0.226l-2.045,122.202l-2.039-121.773c-0.728,0.081-1.455,0.167-2.182,0.251l-1.266,75.561
		c0.041,0.285,0.081,0.57,0.122,0.855c0.028,0.196,0.072,0.387,0.122,0.573c-0.05,0.187-0.094,0.376-0.122,0.572
		c-0.059,0.412-0.117,0.824-0.176,1.236l-0.716,42.726l-0.565-33.726c-0.378,2.657-0.756,5.314-1.135,7.972l0.971,57.874
		c0.732,0.09,1.464,0.18,2.196,0.266l2.039-121.455l2.046,121.914c0.724,0.079,1.449,0.153,2.173,0.228l2.049-122.142l2.055,122.555
		c0.716,0.067,1.434,0.126,2.15,0.19l2.058-122.745l2.065,123.11c0.711,0.057,1.422,0.101,2.134,0.154l2.068-123.265l2.073,123.564
		c0.707,0.047,1.413,0.093,2.119,0.137l2.074-123.701l2.077,123.935c0.702,0.037,1.403,0.084,2.104,0.119l2.079-124.054
		l2.082,124.222c0.699,0.027,1.397,0.06,2.096,0.084l2.084-124.306l2.087,124.426c0.697,0.018,1.394,0.036,2.091,0.05l2.089-124.477
		l2.089,124.547c0.696,0.008,1.391,0.011,2.086,0.017l2.087-124.564l2.087,124.586c0.695-0.001,1.39-0.013,2.084-0.017
		l2.087-124.569l2.085,124.536c0.695-0.011,1.391-0.03,2.086-0.044l2.086-124.491l2.084,124.391c0.698-0.02,1.395-0.037,2.092-0.06
		l2.084-124.331l2.083,124.164c0.701-0.03,1.402-0.052,2.102-0.085l2.081-124.079l2.077,123.854
		c0.704-0.039,1.408-0.076,2.111-0.119l2.073-123.735l2.068,123.461c0.708-0.049,1.416-0.101,2.123-0.153l2.064-123.308
		l2.058,122.986c0.713-0.06,1.426-0.126,2.139-0.189l2.055-122.797l2.048,122.429c0.72-0.07,1.439-0.153,2.159-0.227l2.046-122.202
		l2.039,121.774c0.727-0.081,1.454-0.167,2.181-0.251L287.034,751.468z"/>
	<path fill="#D39D18" d="M290.841,778.213l-0.274,16.364l-0.348-20.736c-0.479-3.369-0.959-6.739-1.438-10.108l1.052,62.806
		c0.637-0.08,1.275-0.149,1.912-0.231c0.101-0.013,0.198-0.034,0.297-0.051l0.594-35.432
		C292.037,786.62,291.439,782.417,290.841,778.213z"/>
	<path fill="#D39D18" d="M295.879,813.611l0.172,10.277c0.676-0.927,1.004-2.028,0.841-3.153
		C296.555,818.36,296.217,815.986,295.879,813.611z"/>
	<path fill="#D39D18" d="M169.789,686.476l-0.172-10.278c-0.677,0.927-1.005,2.028-0.842,3.153
		C169.112,681.726,169.45,684.101,169.789,686.476z"/>
	<path fill="#D39D18" d="M174.826,721.872l0.274-16.364l0.348,20.736c0.479,3.369,0.959,6.737,1.438,10.105l-1.053-62.803
		c-0.637,0.08-1.274,0.149-1.911,0.231c-0.101,0.013-0.198,0.034-0.297,0.051l-0.594,35.434
		C173.63,713.466,174.228,717.669,174.826,721.872z"/>
	<path fill="#D39D18" d="M292.589,673.945l-0.677,40.403c1.066-7.49,2.132-14.98,3.198-22.471l-0.284-16.895
		C294.188,674.518,293.429,674.16,292.589,673.945z"/>
	<path fill="#D39D18" d="M173.078,826.14l0.677-40.403c-1.066,7.489-2.131,14.978-3.197,22.466l0.283,16.899
		C171.48,825.567,172.238,825.925,173.078,826.14z"/>
</g>
</svg>
