<?xml version="1.0" encoding="iso-8859-1"?>
<!-- Generator: Adobe Illustrator 15.1.0, SVG Export Plug-In . SVG Version: 6.00 Build 0)  -->
<!DOCTYPE svg PUBLIC "-//W3C//DTD SVG 1.1//EN" "http://www.w3.org/Graphics/SVG/1.1/DTD/svg11.dtd">
<svg version="1.1" id="Layer_1" xmlns="http://www.w3.org/2000/svg" xmlns:xlink="http://www.w3.org/1999/xlink" x="0px" y="0px"
	 width="320px" height="180px" viewBox="0 0 320 180" style="enable-background:new 0 0 320 180;" xml:space="preserve">
<path style="opacity:0.72;fill:#FFFFFF;" d="M310.395,86.726c0-20.771-34.987-38.596-84.876-46.236
	c-8.336-18.706-34.425-32.356-65.321-32.356c-30.988,0-57.139,13.73-65.396,32.52c-4.376-5.748-15.18-9.816-27.824-9.816
	c-16.518,0-29.908,6.94-29.908,15.5c0,5.96,6.494,11.131,16.009,13.725c-13.458,7.726-21.25,16.866-21.25,26.663
	c0,4.217,1.451,8.313,4.167,12.225c-16.583,7.723-26.871,18.465-26.871,30.347c0,23.51,40.269,42.57,89.944,42.57
	c26.094,0,49.588-5.262,66.02-13.663c8.301,2.305,17.875,3.621,28.073,3.621c31.709,0,57.415-12.707,57.415-28.381
	c0-1.789-0.338-3.538-0.979-5.235C286.302,119.166,310.395,103.961,310.395,86.726z"/>
</svg>
