<?xml version="1.0" encoding="iso-8859-1"?>
<!-- Generator: Adobe Illustrator 15.1.0, SVG Export Plug-In . SVG Version: 6.00 Build 0)  -->
<!DOCTYPE svg PUBLIC "-//W3C//DTD SVG 1.1//EN" "http://www.w3.org/Graphics/SVG/1.1/DTD/svg11.dtd">
<svg version="1.1" xmlns="http://www.w3.org/2000/svg" xmlns:xlink="http://www.w3.org/1999/xlink" x="0px" y="0px" width="24.25px"
	 height="49px" viewBox="0 0 24.25 49" style="enable-background:new 0 0 24.25 49;" xml:space="preserve">
<g id="frame1">
	<g>
		<g>
			<path style="fill:#E6E6E6;" d="M13.48,24.696c1.93-1.464,3.683-3.465,3.728-4.633c0.167-4.028,1.271-8.112,1.775-12.405
				c0.125-1.285-2.398-3.965-6.039-5.033c-0.08-0.022-0.159-0.043-0.238-0.065C9.055,1.55,6.095,3.103,6.439,5.042
				c1.068,6.018,2.934,12.139,3.334,18.607c0.027,0.412,0.104,0.75,0.202,1.047c-0.099,0.298-0.175,0.636-0.202,1.047
				c-0.4,6.468-2.266,12.59-3.334,18.607c-0.345,1.94,2.615,3.493,6.267,2.482c0.079-0.021,0.158-0.042,0.238-0.065
				c3.641-1.066,6.164-3.748,6.039-5.032c-0.504-4.294-1.608-8.378-1.775-12.405C17.163,28.162,15.41,26.161,13.48,24.696z"/>
			<path style="fill:#999999;" d="M13.48,24.696c0.899-0.706,1.737-1.493,2.464-2.371c0.359-0.441,0.694-0.906,0.94-1.414
				c0.118-0.253,0.218-0.521,0.238-0.79l0.039-0.854c0.134-2.295,0.521-4.559,0.89-6.815c0.187-1.128,0.378-2.254,0.532-3.383
				l0.11-0.847c0.023-0.282,0.094-0.581,0.06-0.793C18.67,6.943,18.346,6.465,18,6.046c-1.46-1.673-3.541-2.785-5.709-3.296
				c-1.067-0.238-2.206-0.292-3.259-0.039c-1.02,0.234-2.104,0.846-2.274,1.792C6.677,4.92,6.89,5.526,6.965,6.082l0.341,1.674
				l0.732,3.348c0.498,2.232,0.995,4.472,1.389,6.737c0.2,1.131,0.362,2.271,0.501,3.415c0.058,0.573,0.126,1.145,0.165,1.721
				c0.048,0.6,0.064,1.113,0.237,1.602l0.042,0.118l-0.042,0.118c-0.171,0.49-0.189,1.014-0.236,1.602
				c-0.038,0.567-0.107,1.146-0.165,1.721c-0.139,1.145-0.302,2.283-0.501,3.415c-0.395,2.265-0.891,4.505-1.389,6.737l-0.732,3.348
				l-0.341,1.677l-0.158,0.84c-0.029,0.154-0.051,0.259-0.067,0.405c-0.004,0.104-0.005,0.213,0.017,0.331
				c0.169,0.946,1.253,1.559,2.274,1.791c1.055,0.253,2.186,0.201,3.264-0.04c2.157-0.509,4.245-1.622,5.704-3.295
				c0.345-0.418,0.669-0.896,0.754-1.38c0.034-0.205-0.037-0.514-0.061-0.794l-0.11-0.848c-0.154-1.128-0.345-2.255-0.533-3.383
				c-0.368-2.256-0.755-4.521-0.889-6.814l-0.038-0.856c-0.021-0.269-0.12-0.536-0.239-0.789c-0.245-0.508-0.581-0.973-0.94-1.413
				C15.218,26.189,14.38,25.402,13.48,24.696z M13.48,24.696c0.918,0.682,1.778,1.447,2.533,2.313
				c0.374,0.435,0.727,0.895,0.994,1.412c0.129,0.26,0.242,0.534,0.274,0.837l0.063,0.856c0.193,2.274,0.638,4.517,1.066,6.764
				c0.213,1.124,0.415,2.251,0.59,3.387l0.124,0.853c0.023,0.287,0.11,0.544,0.072,0.911c-0.112,0.654-0.469,1.154-0.832,1.619
				c-1.532,1.806-3.671,2.979-5.937,3.555c-1.145,0.273-2.358,0.354-3.538,0.091c-0.588-0.131-1.167-0.356-1.682-0.716
				c-0.506-0.354-0.971-0.892-1.089-1.576c-0.032-0.164-0.037-0.344-0.024-0.523c0.014-0.139,0.046-0.314,0.07-0.44l0.155-0.848
				l0.335-1.688l0.717-3.359c0.487-2.235,0.97-4.467,1.349-6.711c0.192-1.122,0.347-2.249,0.479-3.377
				c0.054-0.563,0.059-1.121,0.094-1.695C9.337,25.812,9.5,25.177,9.5,24.579v0.235c0-0.598-0.164-1.244-0.205-1.781
				c-0.035-0.566-0.07-1.13-0.125-1.695c-0.132-1.128-0.271-2.254-0.464-3.376c-0.379-2.245-0.854-4.476-1.341-6.711L6.652,7.891
				l-0.333-1.69L6.166,5.357C6.112,5.104,6.048,4.719,6.12,4.393c0.118-0.685,0.583-1.222,1.089-1.576
				c0.515-0.359,1.094-0.585,1.682-0.715c1.182-0.262,2.388-0.184,3.543,0.092c2.256,0.573,4.4,1.748,5.931,3.553
				c0.363,0.465,0.721,0.964,0.832,1.619c0.038,0.359-0.049,0.626-0.072,0.912L19,9.129c-0.175,1.134-0.377,2.262-0.59,3.386
				c-0.429,2.246-0.873,4.491-1.066,6.762l-0.062,0.858c-0.032,0.302-0.146,0.577-0.275,0.836c-0.268,0.517-0.619,0.977-0.993,1.412
				C15.259,23.249,14.398,24.014,13.48,24.696z"/>
		</g>
		<ellipse style="fill:#E6E6E6;" cx="12.258" cy="24.434" rx="4.678" ry="1.849"/>
	</g>
</g>
<g id="frame2" style="display:none;">
	<g style="display:inline;">
		<g>
			<path style="fill:#E6E6E6;" d="M13.48,24.696c1.93-1.024,3.683-2.423,3.728-3.24c0.167-2.817,1.271-5.673,1.775-8.676
				c0.125-0.899-2.398-2.773-6.039-3.521c-0.08-0.016-0.159-0.03-0.238-0.045c-3.651-0.707-6.611,0.379-6.267,1.736
				c1.068,4.208,2.934,8.49,3.334,13.014c0.027,0.288,0.104,0.524,0.202,0.732c-0.099,0.209-0.175,0.445-0.202,0.732
				c-0.4,4.524-2.266,8.806-3.334,13.014c-0.345,1.357,2.615,2.443,6.267,1.736c0.079-0.015,0.158-0.029,0.238-0.046
				c3.641-0.746,6.164-2.621,6.039-3.52c-0.504-3.003-1.608-5.859-1.775-8.676C17.163,27.12,15.41,25.721,13.48,24.696z"/>
			<path style="fill:#999999;" d="M13.48,24.696c0.78-0.434,1.534-0.92,2.228-1.479c0.346-0.28,0.679-0.578,0.964-0.913
				c0.142-0.168,0.272-0.346,0.363-0.538c0.1-0.186,0.089-0.392,0.106-0.625c0.118-1.8,0.573-3.55,0.977-5.286
				c0.205-0.869,0.412-1.735,0.567-2.608l0.056-0.328c0.02-0.114,0.043-0.226,0.023-0.267c-0.025-0.138-0.135-0.323-0.265-0.475
				c-0.265-0.314-0.607-0.586-0.965-0.828c-1.454-0.958-3.158-1.539-4.88-1.854c-1.698-0.295-3.55-0.321-5.077,0.349
				c-0.364,0.17-0.699,0.428-0.802,0.705c-0.048,0.155-0.048,0.222,0.02,0.456l0.173,0.647c0.238,0.85,0.5,1.703,0.769,2.553
				c0.536,1.702,1.103,3.404,1.556,5.149c0.226,0.872,0.435,1.752,0.586,2.646c0.077,0.446,0.148,0.895,0.198,1.346
				c0.06,0.48,0.064,0.861,0.235,1.188l0.079,0.151l-0.079,0.169c-0.081,0.172-0.133,0.346-0.158,0.531l-0.076,0.655
				c-0.048,0.44-0.122,0.906-0.198,1.349c-0.152,0.894-0.36,1.773-0.586,2.646c-0.454,1.745-1.021,3.447-1.557,5.148
				c-0.268,0.852-0.53,1.702-0.77,2.557c-0.091,0.417-0.309,0.923-0.192,1.1c0.103,0.277,0.438,0.535,0.801,0.705
				c0.743,0.353,1.619,0.488,2.478,0.531c0.865,0.044,1.741-0.026,2.599-0.184c1.723-0.315,3.426-0.895,4.88-1.854
				c0.358-0.241,0.7-0.514,0.965-0.827c0.131-0.154,0.238-0.331,0.266-0.479c0.007-0.036,0.005-0.07,0.004-0.096l-0.028-0.165
				l-0.056-0.331c-0.155-0.869-0.361-1.738-0.567-2.605c-0.403-1.736-0.858-3.486-0.977-5.286c0.031-0.467-0.17-0.818-0.469-1.162
				c-0.286-0.335-0.619-0.633-0.964-0.914C15.015,25.617,14.261,25.131,13.48,24.696z M13.48,24.696
				c0.795,0.408,1.566,0.868,2.284,1.407c0.357,0.271,0.704,0.56,1.011,0.895c0.151,0.169,0.296,0.348,0.403,0.558
				c0.122,0.212,0.123,0.473,0.145,0.68c0.178,1.771,0.687,3.486,1.149,5.212c0.23,0.865,0.449,1.733,0.627,2.621l0.063,0.329
				l0.031,0.164c0.013,0.086,0.013,0.164,0.001,0.238c-0.052,0.295-0.199,0.506-0.347,0.696c-0.307,0.375-0.668,0.669-1.044,0.935
				c-1.518,1.042-3.262,1.667-5.038,2.03c-1.785,0.338-3.688,0.437-5.468-0.329c-0.426-0.212-0.896-0.49-1.135-1.059
				c-0.052-0.146-0.085-0.286-0.076-0.466c0.003-0.103,0.016-0.146,0.024-0.201l0.046-0.187l0.17-0.654
				c0.238-0.868,0.496-1.728,0.76-2.583c0.527-1.711,1.08-3.406,1.514-5.125c0.217-0.858,0.416-1.721,0.557-2.591
				c0.072-0.438,0.137-0.856,0.184-1.304l0.006-0.677C9.381,25.028,9.5,24.769,9.5,24.537v0.32c0-0.215-0.124-0.522-0.15-0.748
				l-0.041-0.676c-0.045-0.437-0.095-0.873-0.167-1.307C9,21.256,8.81,20.394,8.593,19.535c-0.435-1.718-0.983-3.414-1.51-5.125
				c-0.264-0.856-0.52-1.713-0.758-2.586l-0.168-0.648c-0.067-0.188-0.119-0.592,0.005-0.856c0.24-0.568,0.709-0.846,1.136-1.057
				c1.779-0.766,3.684-0.665,5.467-0.329c1.777,0.363,3.521,0.989,5.038,2.03c0.376,0.266,0.738,0.56,1.044,0.935
				c0.148,0.193,0.294,0.396,0.348,0.701c0.025,0.182-0.017,0.292-0.033,0.396l-0.063,0.333c-0.177,0.883-0.396,1.754-0.627,2.619
				c-0.463,1.726-0.972,3.441-1.148,5.211c-0.022,0.209-0.022,0.466-0.145,0.68c-0.108,0.21-0.252,0.389-0.403,0.558
				c-0.307,0.335-0.653,0.624-1.011,0.895C15.047,23.828,14.275,24.289,13.48,24.696z"/>
		</g>
		<ellipse style="fill:#E6E6E6;" cx="12.258" cy="24.434" rx="4.678" ry="1.849"/>
	</g>
</g>
<g id="frame3" style="display:none;">
	<g style="display:inline;">
		<g>
			<path style="fill:#E6E6E6;" d="M13.48,24.696c1.93-0.587,3.683-1.389,3.728-1.857c0.167-1.615,1.271-3.252,1.775-4.973
				c0.125-0.515-2.398-1.59-6.039-2.018c-0.08-0.009-0.159-0.018-0.238-0.026c-3.651-0.405-6.611,0.217-6.267,0.995
				c1.068,2.413,2.934,4.867,3.334,7.46c0.027,0.165,0.104,0.3,0.202,0.419c-0.099,0.12-0.175,0.255-0.202,0.42
				c-0.4,2.594-2.266,5.048-3.334,7.46c-0.345,0.778,2.615,1.4,6.267,0.995c0.079-0.008,0.158-0.017,0.238-0.026
				c3.641-0.428,6.164-1.502,6.039-2.018c-0.504-1.721-1.608-3.358-1.775-4.973C17.163,26.086,15.41,25.284,13.48,24.696z"/>
			<path style="fill:#999999;" d="M13.48,24.696c0.626-0.211,1.245-0.445,1.847-0.712c0.59-0.272,1.223-0.546,1.673-0.976
				c0.05-0.054,0.093-0.117,0.101-0.163l0.029-0.236c0.02-0.163,0.052-0.337,0.09-0.5c0.072-0.33,0.176-0.649,0.287-0.964
				c0.225-0.63,0.497-1.236,0.743-1.845c0.124-0.304,0.245-0.608,0.353-0.914c0.053-0.154,0.104-0.307,0.148-0.462l0.035-0.116
				c-0.016,0.069,0.003-0.038-0.008-0.002c-0.006,0.011,0.007,0.033-0.002,0.019c-0.01-0.022-0.05-0.074-0.103-0.116
				c-0.456-0.356-1.108-0.579-1.713-0.778c-1.242-0.385-2.536-0.622-3.833-0.771c-1.301-0.145-2.604-0.193-3.896-0.098
				c-0.641,0.053-1.289,0.14-1.874,0.324c-0.271,0.072-0.606,0.268-0.611,0.325c0.004,0,0.004-0.037,0-0.031l0.104,0.225l0.213,0.44
				c0.58,1.16,1.271,2.293,1.875,3.489c0.302,0.599,0.583,1.215,0.808,1.86c0.11,0.324,0.208,0.654,0.288,0.99l0.101,0.51
				c0.032,0.144,0.045,0.147,0.127,0.263l0.175,0.246l-0.174,0.23c-0.078,0.103-0.106,0.152-0.129,0.275l-0.096,0.488
				c-0.083,0.347-0.181,0.679-0.291,1.001c-0.225,0.646-0.506,1.263-0.808,1.861c-0.604,1.196-1.293,2.327-1.875,3.491l-0.212,0.438
				l-0.103,0.22c-0.013,0.068,0.01-0.044-0.002-0.027c0.004,0.057,0.339,0.253,0.61,0.325c0.585,0.184,1.232,0.271,1.874,0.323
				c1.291,0.097,2.596,0.046,3.896-0.099c1.296-0.148,2.591-0.385,3.832-0.771c0.605-0.197,1.258-0.421,1.714-0.777
				c0.052-0.042,0.092-0.093,0.103-0.115c0.007-0.013-0.001-0.005,0.007,0.008l-0.032-0.105c-0.046-0.161-0.097-0.313-0.149-0.464
				c-0.107-0.306-0.228-0.609-0.353-0.913c-0.246-0.609-0.519-1.216-0.742-1.846c-0.111-0.314-0.216-0.635-0.288-0.964
				c-0.038-0.164-0.068-0.331-0.09-0.498L17.1,26.545c-0.007-0.041-0.05-0.106-0.1-0.16c-0.45-0.429-1.083-0.704-1.673-0.976
				C14.725,25.142,14.106,24.908,13.48,24.696z M13.48,24.696c0.638,0.175,1.27,0.374,1.89,0.608
				c0.613,0.254,1.239,0.48,1.773,0.943c0.063,0.066,0.128,0.134,0.161,0.256l0.042,0.249c0.026,0.159,0.063,0.316,0.106,0.473
				c0.082,0.313,0.196,0.619,0.318,0.922c0.245,0.605,0.54,1.195,0.815,1.8c0.14,0.302,0.267,0.61,0.388,0.925
				c0.06,0.16,0.118,0.32,0.167,0.476l0.042,0.132c0.021,0.094,0.005,0.187-0.024,0.249c-0.057,0.129-0.132,0.203-0.202,0.269
				c-0.583,0.473-1.215,0.68-1.849,0.914c-1.273,0.432-2.585,0.706-3.909,0.893c-1.321,0.188-2.669,0.271-4.016,0.174
				c-0.674-0.052-1.348-0.131-2.027-0.337c-0.17-0.053-0.341-0.117-0.515-0.208c-0.167-0.101-0.368-0.188-0.515-0.491
				c-0.078-0.136-0.048-0.423,0.006-0.507l0.105-0.229l0.216-0.456c0.59-1.205,1.27-2.341,1.846-3.51
				c0.288-0.583,0.551-1.175,0.756-1.779c0.101-0.305,0.187-0.607,0.255-0.904l-0.002-0.485C9.337,24.867,9.5,24.61,9.5,24.458
				v0.477c0-0.086-0.036-0.174-0.091-0.29c-0.025-0.058-0.013-0.146-0.021-0.183l-0.011-0.152l-0.075-0.463
				c-0.071-0.307-0.152-0.612-0.252-0.915c-0.205-0.604-0.465-1.196-0.753-1.779c-0.577-1.17-1.253-2.302-1.846-3.512l-0.213-0.454
				l-0.103-0.225c-0.07-0.146-0.078-0.358-0.007-0.511c0.147-0.302,0.347-0.39,0.515-0.49c0.174-0.091,0.345-0.155,0.515-0.208
				c0.679-0.206,1.353-0.286,2.027-0.337c1.346-0.098,2.696-0.012,4.017,0.173c1.322,0.187,2.635,0.461,3.907,0.893
				c0.635,0.234,1.267,0.441,1.849,0.914c0.071,0.066,0.146,0.14,0.203,0.269c0.013,0.022,0.028,0.087,0.032,0.138
				c0,0.075,0.005,0.011-0.011,0.121l-0.04,0.121c-0.051,0.162-0.108,0.32-0.167,0.477c-0.121,0.313-0.248,0.623-0.388,0.924
				c-0.275,0.604-0.57,1.194-0.815,1.8c-0.122,0.303-0.235,0.608-0.318,0.922c-0.043,0.158-0.078,0.307-0.106,0.471l-0.043,0.254
				c-0.031,0.116-0.098,0.187-0.159,0.252c-0.534,0.463-1.16,0.69-1.773,0.943C14.75,24.322,14.118,24.521,13.48,24.696z"/>
		</g>
		<ellipse style="fill:#E6E6E6;" cx="12.258" cy="24.434" rx="4.678" ry="1.849"/>
	</g>
</g>
<g id="frame4" style="display:none;">
	<g style="display:inline;">
		<g>
			<path style="fill:#E6E6E6;" d="M13.48,24.696c1.93-1.024,3.683-2.423,3.728-3.24c0.167-2.817,1.271-5.673,1.775-8.676
				c0.125-0.899-2.398-2.773-6.039-3.521c-0.08-0.016-0.159-0.03-0.238-0.045c-3.651-0.707-6.611,0.379-6.267,1.736
				c1.068,4.208,2.934,8.49,3.334,13.014c0.027,0.288,0.104,0.524,0.202,0.732c-0.099,0.209-0.175,0.445-0.202,0.732
				c-0.4,4.524-2.266,8.806-3.334,13.014c-0.345,1.357,2.615,2.443,6.267,1.736c0.079-0.015,0.158-0.029,0.238-0.046
				c3.641-0.746,6.164-2.621,6.039-3.52c-0.504-3.003-1.608-5.859-1.775-8.676C17.163,27.12,15.41,25.721,13.48,24.696z"/>
			<path style="fill:#999999;" d="M13.48,24.696c0.78-0.434,1.534-0.92,2.228-1.479c0.346-0.28,0.679-0.578,0.964-0.913
				c0.142-0.168,0.272-0.346,0.363-0.538c0.1-0.186,0.089-0.392,0.106-0.625c0.118-1.8,0.573-3.55,0.977-5.286
				c0.205-0.869,0.412-1.735,0.567-2.608l0.056-0.328c0.02-0.114,0.043-0.226,0.023-0.267c-0.025-0.138-0.135-0.323-0.265-0.475
				c-0.265-0.314-0.607-0.586-0.965-0.828c-1.454-0.958-3.158-1.539-4.88-1.854c-1.698-0.295-3.55-0.321-5.077,0.349
				c-0.364,0.17-0.699,0.428-0.802,0.705c-0.048,0.155-0.048,0.222,0.02,0.456l0.173,0.647c0.238,0.85,0.5,1.703,0.769,2.553
				c0.536,1.702,1.103,3.404,1.556,5.149c0.226,0.872,0.435,1.752,0.586,2.646c0.077,0.446,0.148,0.895,0.198,1.346
				c0.06,0.48,0.064,0.861,0.235,1.188l0.079,0.151l-0.079,0.169c-0.081,0.172-0.133,0.346-0.158,0.531l-0.076,0.655
				c-0.048,0.44-0.122,0.906-0.198,1.349c-0.152,0.894-0.36,1.773-0.586,2.646c-0.454,1.745-1.021,3.447-1.557,5.148
				c-0.268,0.852-0.53,1.702-0.77,2.557c-0.091,0.417-0.309,0.923-0.192,1.1c0.103,0.277,0.438,0.535,0.801,0.705
				c0.743,0.353,1.619,0.488,2.478,0.531c0.865,0.044,1.741-0.026,2.599-0.184c1.723-0.315,3.426-0.895,4.88-1.854
				c0.358-0.241,0.7-0.514,0.965-0.827c0.131-0.154,0.238-0.331,0.266-0.479c0.007-0.036,0.005-0.07,0.004-0.096l-0.028-0.165
				l-0.056-0.331c-0.155-0.869-0.361-1.738-0.567-2.605c-0.403-1.736-0.858-3.486-0.977-5.286c0.031-0.467-0.17-0.818-0.469-1.162
				c-0.286-0.335-0.619-0.633-0.964-0.914C15.015,25.617,14.261,25.131,13.48,24.696z M13.48,24.696
				c0.795,0.408,1.566,0.868,2.284,1.407c0.357,0.271,0.704,0.56,1.011,0.895c0.151,0.169,0.296,0.348,0.403,0.558
				c0.122,0.212,0.123,0.473,0.145,0.68c0.178,1.771,0.687,3.486,1.149,5.212c0.23,0.865,0.449,1.733,0.627,2.621l0.063,0.329
				l0.031,0.164c0.013,0.086,0.013,0.164,0.001,0.238c-0.052,0.295-0.199,0.506-0.347,0.696c-0.307,0.375-0.668,0.669-1.044,0.935
				c-1.518,1.042-3.262,1.667-5.038,2.03c-1.785,0.338-3.688,0.437-5.468-0.329c-0.426-0.212-0.896-0.49-1.135-1.059
				c-0.052-0.146-0.085-0.286-0.076-0.466c0.003-0.103,0.016-0.146,0.024-0.201l0.046-0.187l0.17-0.654
				c0.238-0.868,0.496-1.728,0.76-2.583c0.527-1.711,1.08-3.406,1.514-5.125c0.217-0.858,0.416-1.721,0.557-2.591
				c0.072-0.438,0.137-0.856,0.184-1.304l0.006-0.677C9.381,25.028,9.5,24.769,9.5,24.537v0.32c0-0.215-0.124-0.522-0.15-0.748
				l-0.041-0.676c-0.045-0.437-0.095-0.873-0.167-1.307C9,21.256,8.81,20.394,8.593,19.535c-0.435-1.718-0.983-3.414-1.51-5.125
				c-0.264-0.856-0.52-1.713-0.758-2.586l-0.168-0.648c-0.067-0.188-0.119-0.592,0.005-0.856c0.24-0.568,0.709-0.846,1.136-1.057
				c1.779-0.766,3.684-0.665,5.467-0.329c1.777,0.363,3.521,0.989,5.038,2.03c0.376,0.266,0.738,0.56,1.044,0.935
				c0.148,0.193,0.294,0.396,0.348,0.701c0.025,0.182-0.017,0.292-0.033,0.396l-0.063,0.333c-0.177,0.883-0.396,1.754-0.627,2.619
				c-0.463,1.726-0.972,3.441-1.148,5.211c-0.022,0.209-0.022,0.466-0.145,0.68c-0.108,0.21-0.252,0.389-0.403,0.558
				c-0.307,0.335-0.653,0.624-1.011,0.895C15.047,23.828,14.275,24.289,13.48,24.696z"/>
		</g>
		<ellipse style="fill:#E6E6E6;" cx="12.258" cy="24.434" rx="4.678" ry="1.849"/>
	</g>
</g>
<g id="frame0" style="display:none;">
	<g style="display:inline;">
		<polygon style="fill:#D3BF0B;" points="20.682,25.261 19.604,24.185 20.682,23.107 22.76,24.185 		"/>
		<g>
			<path style="fill:#E6E6E6;" d="M18.557,22.438c-0.507,0-0.976,0.093-1.385,0.243c-1.57-0.914-4.012-1.539-6.761-0.373
				c-4.737,2.007-8.577,0.715-8.577,2.242c-0.001,1.526,3.84,0.234,8.577,2.242c3.21,1.36,6.005,0.282,7.475-0.848
				c0.216,0.034,0.438,0.057,0.671,0.057c1.543,0,2.794-0.798,2.794-1.781C21.351,23.236,20.1,22.438,18.557,22.438z"/>
			<path style="fill:#999999;" d="M18.557,22.438c-0.472,0.006-0.94,0.092-1.38,0.257l-0.006,0.002l-0.007-0.004
				c-1.201-0.681-2.591-1.024-3.964-0.959c-0.687,0.035-1.363,0.179-2.009,0.401c-0.641,0.222-1.26,0.552-1.928,0.774
				c-1.318,0.472-2.707,0.744-4.093,0.904c-0.691,0.082-1.39,0.138-2.049,0.23c-0.319,0.048-0.659,0.121-0.832,0.25
				c-0.081,0.065-0.103,0.111-0.114,0.207l-0.002,0.037c-0.001-0.005-0.001,0.038-0.002-0.007l0.003,0.033
				c0.005,0.033,0.006,0.11,0.015,0.102c0.007,0.01,0.018,0.05,0.044,0.075c0.089,0.12,0.413,0.219,0.725,0.262
				c0.321,0.048,0.661,0.073,1.003,0.098c0.687,0.045,1.388,0.086,2.084,0.186c1.395,0.185,2.783,0.519,4.095,1.049
				c1.252,0.581,2.539,0.93,3.897,0.844c1.338-0.077,2.672-0.533,3.777-1.326l0.043-0.031l0.047,0.008
				c0.636,0.115,1.301,0.1,1.923-0.091c0.609-0.187,1.227-0.575,1.434-1.196c0.212-0.646-0.252-1.289-0.811-1.604
				C19.885,22.596,19.217,22.45,18.557,22.438z M18.557,22.354c0.66-0.002,1.334,0.172,1.914,0.505
				c0.569,0.3,1.08,0.992,0.869,1.683c-0.21,0.673-0.852,1.084-1.471,1.307c-0.637,0.232-1.33,0.291-2.002,0.205l0.09-0.02
				c-1.102,0.88-2.463,1.435-3.882,1.593c-1.412,0.166-2.908-0.13-4.171-0.693c-1.267-0.48-2.598-0.772-3.95-0.924l-2.051-0.191
				c-0.347-0.032-0.698-0.064-1.061-0.125c-0.352-0.082-0.771-0.115-1.145-0.532c-0.086-0.106-0.145-0.231-0.177-0.388
				c-0.021-0.091-0.012-0.102-0.019-0.155l-0.002-0.032C1.495,24.52,1.5,24.542,1.5,24.515l0.008-0.093
				c0.019-0.25,0.186-0.528,0.391-0.662c0.406-0.265,0.778-0.292,1.136-0.351c0.714-0.083,1.4-0.085,2.086-0.136
				c1.369-0.085,2.729-0.279,4.042-0.673c0.659-0.18,1.284-0.474,1.963-0.671c0.674-0.196,1.373-0.383,2.07-0.393
				c1.396-0.038,2.791-0.037,3.982,0.963h-0.012C17.613,22.5,18.086,22.351,18.557,22.354z"/>
		</g>
		<ellipse style="fill:#E6E6E6;" cx="12.258" cy="24.434" rx="4.678" ry="1.849"/>
	</g>
</g>
</svg>
