<?xml version="1.0" encoding="iso-8859-1"?>
<!-- Generator: Adobe Illustrator 15.1.0, SVG Export Plug-In . SVG Version: 6.00 Build 0)  -->
<!DOCTYPE svg PUBLIC "-//W3C//DTD SVG 1.1//EN" "http://www.w3.org/Graphics/SVG/1.1/DTD/svg11.dtd">
<svg version="1.1" xmlns="http://www.w3.org/2000/svg" xmlns:xlink="http://www.w3.org/1999/xlink" x="0px" y="0px" width="600px"
	 height="600px" viewBox="0 0 600 600" style="enable-background:new 0 0 600 600;" xml:space="preserve">
<g id="orelhas">
	<path d="M584.34,158.293c-11.221-53.087-65.979-86.471-122.309-74.565c-56.328,11.905-92.896,64.591-81.676,117.678
		c1.337,6.327,3.3,12.369,5.802,18.093C357.947,199.071,323.152,187,285.5,187c-16.126,0-31.729,2.214-46.516,6.349
		c14.67-21.257,20.945-47.606,15.355-74.056c-11.22-53.087-65.979-86.471-122.308-74.565s-92.896,64.591-81.676,117.678
		c10.558,49.953,59.666,82.455,112.356,76.2C133.172,268.904,115,310.103,115,355.5c0,43.027,16.319,82.288,43.174,112.066
		c8.952,9.927,30.747,2.826,41.826,10.434c27.568,18.931,49.386,46,85.5,46c19.98,0,30.684-15.759,48.5-22
		c13.312-4.663,34.338,1.448,45.896-6.16C425.772,465.643,456,414.061,456,355.5c0-32.815-9.502-63.433-25.92-89.331
		c21.148,11.173,46.698,15.272,72.582,9.801C558.992,264.065,595.559,211.379,584.34,158.293z"/>
</g>
<g id="reflexoOrelhaDireita">
	<path style="fill:#333333;" d="M172.333,135.667c10.875,37.117-41.264,85.521,4.288,72.174
		c45.553-13.347,73.665-54.255,62.79-91.373c-10.875-37.118-56.618-56.388-102.171-43.042
		C91.688,86.774,161.458,98.548,172.333,135.667z"/>
</g>
<g id="reflexoOrelhaEsquerda">
	<path style="fill:#333333;" d="M508.333,164.667c10.875,37.117-48.827,90.565-7.671,78.506
		c41.158-12.059,65.706-51.923,54.831-89.041c-10.875-37.118-53.055-57.433-94.212-45.374
		C420.124,120.818,497.458,127.548,508.333,164.667z"/>
</g>
<g id="face">
	<path style="fill:#F8D8AC;" d="M441.46,438.027c-0.377-19.288-12.45-36.498-31.606-48.661c3.171-10.599,5.663-21.874,7.328-33.647
		c10.016-70.815-13.522-132.701-52.576-138.225c-14.458-2.045-29.014,3.929-42.124,15.85C308.63,210.846,289.778,197,269,197
		c-42.526,0-77,57.979-77,129.5c0,6.229,0.267,12.352,0.772,18.345c-41.737-3.425-77.608,12.63-86.663,41.858
		c-11.291,36.446,23.384,79.568,77.447,96.316c4.561,1.413,9.112,2.587,13.633,3.541c9.425,33.244,38.817,57.21,73.157,56.54
		c24.99-0.488,46.846-13.918,60.034-34.132c3.282,0.149,6.605,0.197,9.966,0.132C396.936,507.995,442.204,476.175,441.46,438.027z"
		/>
</g>
<g id="nariz">
	<ellipse cx="293" cy="401" rx="50" ry="30"/>
</g>
<g id="reflexoNariz">
	<ellipse style="fill:#333333;" cx="282.167" cy="392.9" rx="28.167" ry="16.899"/>
</g>
<g id="bGolhoDireitosombra">
	
		<ellipse transform="matrix(0.9925 0.1224 -0.1224 0.9925 39.1191 -31.3877)" style="fill:#E2C19A;" cx="275" cy="302.666" rx="22" ry="60.667"/>
</g>
<g id="bGolhoEsquerdosombra">
	
		<ellipse transform="matrix(0.9925 0.1224 -0.1224 0.9925 41.2108 -38.7554)" style="fill:#E2C19A;" cx="336" cy="316" rx="19.987" ry="52.518"/>
</g>
<g id="bGolhoDireito_copy">
	
		<ellipse transform="matrix(0.9925 0.1224 -0.1224 0.9925 39.0117 -31.64)" style="fill:#FFFFFF;" cx="277" cy="301.666" rx="22" ry="60.667"/>
</g>
<g id="bGolhoEsquerdo_copy_3">
	
		<ellipse transform="matrix(0.9925 0.1224 -0.1224 0.9925 40.951 -38.5256)" style="fill:#FFFFFF;" cx="334" cy="314" rx="19.987" ry="52.518"/>
</g>
<g id="bGolhoEsquerdo_copy">
	<ellipse transform="matrix(0.9925 0.1224 -0.1224 0.9925 44.4017 -37.8856)" cx="330.479" cy="342.356" rx="8.176" ry="21.482"/>
</g>
<g id="bGolhoEsquerdo_copy_2">
	<ellipse transform="matrix(0.9982 0.0595 -0.0595 0.9982 20.318 -15.8163)" cx="275.812" cy="333.356" rx="8.389" ry="23.498"/>
</g>
<g id="boca">
	<path style="fill:#E2C19A;" d="M393.111,437.396c-39.765,45.119-53.806,56.848-114.361,51.23
		c-71.49-6.632-112.405-39.207-108.417-97.797c-0.266,38.171,33.702,81.962,105.333,86.838
		C347.297,482.543,358.721,470.453,393.111,437.396z"/>
	<path style="fill:#E2C19A;" d="M279.111,488.088c-27.747-1.889-52.969-10.771-73.233-24.344
		c5.849,26.162,28.012,59.923,60.788,59.923c35.451,0,45.264-17.191,55.125-38.473C308.281,488.029,293.918,489.096,279.111,488.088
		z"/>
	<path style="fill:#FF4A2B;" d="M266.298,519.769c9.924,0,17.529-1.556,23.578-4.272C287.729,507.168,280.104,501,271,501
		c-1.677,0-3.296,0.231-4.849,0.624c-4.358-8.478-11.994-14.104-20.691-14.104c-7.212,0-13.697,3.866-18.187,10.021
		C236.618,510.087,249.933,519.769,266.298,519.769z"/>
	<g>
		<path style="fill:#E2C19A;" d="M151.25,403.5c1.618-4.264,4.634-7.898,8.139-10.819c3.53-2.923,7.581-5.122,11.745-6.755
			c1.047-0.396,2.099-0.77,3.153-1.122c1.072-0.326,2.094-0.652,3.256-0.927c2.277-0.544,4.547-0.863,6.835-0.947
			c2.282-0.081,4.55,0.041,6.774,0.39c0.549,0.091,1.126,0.188,1.643,0.296c0.494,0.11,1.075,0.191,1.647,0.333
			c0.577,0.131,1.175,0.316,1.728,0.599c0.546,0.297,1.048,0.699,1.328,1.203c-1.09-0.396-2.051-0.113-3.041,0.149
			c-0.504,0.15-0.997,0.303-1.579,0.455l-1.584,0.402c-2.078,0.521-4.104,1.04-6.077,1.612c-1.965,0.577-3.911,1.178-5.76,1.865
			c-0.903,0.331-1.918,0.704-2.877,1.092c-0.976,0.362-1.944,0.733-2.903,1.118c-3.849,1.505-7.611,3.036-11.292,4.829
			C158.673,399.04,155.119,401.122,151.25,403.5z"/>
	</g>
	<g>
		<path style="fill:#E2C19A;" d="M371.926,431.249c3.708-1.407,7.801-1.435,11.672-0.718c3.886,0.736,7.56,2.252,10.887,4.171
			c0.826,0.491,1.639,0.998,2.438,1.519c0.79,0.551,1.548,1.06,2.358,1.706c1.587,1.26,3.008,2.634,4.269,4.155
			c1.255,1.519,2.355,3.14,3.264,4.855c0.219,0.427,0.452,0.877,0.641,1.288c0.169,0.396,0.416,0.842,0.612,1.315
			c0.208,0.472,0.39,0.99,0.479,1.527c0.073,0.542,0.053,1.106-0.165,1.56c-0.375-0.938-1.105-1.368-1.829-1.857
			c-0.383-0.238-0.756-0.47-1.187-0.77l-1.148-0.807c-1.497-1.059-2.947-2.09-4.393-3.061c-1.445-0.962-2.883-1.907-4.313-2.742
			c-0.692-0.408-1.485-0.885-2.252-1.308c-0.759-0.452-1.518-0.896-2.279-1.325c-3.03-1.753-6.003-3.458-9.1-5.019
			C378.781,434.141,375.565,432.777,371.926,431.249z"/>
	</g>
</g>
</svg>
